<svg width="1441" height="804" viewBox="0 0 1441 804" fill="none" xmlns="http://www.w3.org/2000/svg">
<g clip-path="url(#clip0_200_1969)">
<path d="M413.695 0H0V803H1440V211.261H630.594C507.499 211.261 429.672 196.416 493.578 120.424C573.46 25.4344 496.223 0 413.695 0Z" fill="#FDEA98"/>
<path fill-rule="evenodd" clip-rule="evenodd" d="M-9.9928 58.0051C-26.5636 58.0051 -39.9969 71.4384 -39.9969 88.0092V93.0099C-39.9969 101.188 -36.7252 108.601 -31.4194 114.013H-115.007C-131.578 114.013 -145.011 127.447 -145.011 144.017V149.018C-145.011 165.589 -131.578 179.022 -115.007 179.022H88.022H111.024H141.025V182.022C141.025 198.593 154.459 212.026 171.029 212.026H397.06C413.631 212.026 427.064 198.593 427.064 182.022V177.021C427.064 160.45 413.631 147.017 397.06 147.017H344.057V144.017C344.057 127.447 330.624 114.013 314.053 114.013H237.465C242.77 108.601 246.042 101.188 246.042 93.0099V88.0092C246.042 71.4384 232.609 58.0051 216.038 58.0051H-9.9928Z" fill="#FDE482"/>
<path fill-rule="evenodd" clip-rule="evenodd" d="M-14.9916 226.529C-14.9916 218.52 -8.49883 212.027 -0.489609 212.027H147.531C155.54 212.027 162.033 218.52 162.033 226.529C162.033 234.514 155.578 240.992 147.602 241.031H178.532C186.542 241.031 193.034 247.523 193.034 255.533C193.034 263.542 186.542 270.035 178.532 270.035H30.5122C24.8404 270.035 19.9291 266.779 17.5455 262.034H-57.4995C-65.5087 262.034 -72.0015 255.541 -72.0015 247.532C-72.0015 239.523 -65.5087 233.03 -57.4995 233.03H-13.4564C-14.4386 231.074 -14.9916 228.866 -14.9916 226.529Z" fill="#FDE482"/>
<path fill-rule="evenodd" clip-rule="evenodd" d="M81.0179 277.035C73.8372 277.035 68.0161 282.856 68.0161 290.037C68.0161 297.218 73.8372 303.039 81.0179 303.039H128.024C128.024 310.219 133.845 316.04 141.026 316.04H292.046C299.227 316.04 305.048 310.219 305.048 303.038C305.048 295.858 299.227 290.037 292.047 290.037H245.04C245.04 282.856 239.219 277.035 232.039 277.035H81.0179Z" fill="#FDE482"/>
<path fill-rule="evenodd" clip-rule="evenodd" d="M1295.18 172.52C1295.18 162.302 1303.46 154.018 1313.68 154.018H1471.7C1481.92 154.018 1490.21 162.302 1490.21 172.52C1490.21 182.739 1481.92 191.023 1471.7 191.023H1425.14C1425.31 191.351 1425.47 191.684 1425.62 192.023H1506.71C1516.93 192.023 1525.22 200.307 1525.22 210.526C1525.22 220.744 1516.93 229.028 1506.71 229.028H1348.69C1341.14 229.028 1334.65 224.508 1331.77 218.026H1250.68C1240.46 218.026 1232.17 209.742 1232.17 199.524C1232.17 189.305 1240.46 181.021 1250.68 181.021H1297.24C1295.93 178.476 1295.18 175.585 1295.18 172.52Z" fill="#FDE482"/>
<rect x="1410" y="184.001" width="30" height="24" fill="#FDE482"/>
<path d="M1.88867 60.2702C13.2953 60.2702 215.679 52.0224 236.749 67.0074C250.959 77.1131 245.968 94.7979 244.382 101.535C243.788 104.059 242.359 109.535 238.414 112.582C236.287 114.225 231.54 116.534 236.749 117.684C255.315 118.898 271.642 116.272 288.543 117.585" stroke="#FFB834" stroke-width="3.00041" stroke-linecap="round"/>
<path d="M57.4551 179.95C78.8531 178.366 113.357 179.118 134.877 179.95C142.912 180.261 144.021 189.187 143.954 191.925C143.69 202.741 160.914 209.974 172.253 210.508C223.285 212.908 285.068 211.746 336.174 211.746" stroke="#FFB834" stroke-width="3.00041" stroke-linecap="round"/>
<path d="M342.12 138.016C342.12 152.544 362.786 148.757 375.702 148.757C384.804 148.757 415.148 147.997 420.479 157.019" stroke="#FFB834" stroke-width="3.00041" stroke-linecap="round"/>
<path d="M423.745 167.02C427.574 173.891 424.124 193.669 420.458 201.024" stroke="#FFB834" stroke-width="3.00041" stroke-linecap="round"/>
<path d="M-10 212.411C8.86837 211.545 41.567 212.411 60.4999 212.411C68.571 212.411 104.236 212.411 112.307 212.411C119.71 212.411 144.182 211.715 150.686 214.011C157.137 216.288 163.045 218.072 163.045 225.787C163.045 229.036 161.426 233.605 159.307 234.721C156.636 237.563 150.686 236.81 150.686 238.886C150.686 243.672 170.523 238.886 184.409 242.03" stroke="#FFB834" stroke-width="3.00041" stroke-linecap="round"/>
<path d="M84.2373 279.992C90.5923 279.992 231.875 275.089 240.403 280.809C242.654 282.319 244.667 285.769 244.667 288.572C244.667 293.375 292.264 291.432 294.767 291.432C300.63 291.931 305.427 297.151 305.427 306.548C305.427 310.634 303.295 313.902 294.767 315.945C280.19 317.774 259.59 316.762 245.732 316.762" stroke="#FFB834" stroke-width="3.00041" stroke-linecap="round"/>
<path d="M1439.21 153.018C1434.91 153.734 1329.05 153.018 1320.89 153.018C1312.74 153.018 1309.81 153.936 1305.27 156.113C1301.53 157.903 1300.5 159.225 1298.33 161.227C1295.56 163.777 1295.02 167.732 1295.13 171.456C1295.28 176.734 1296.28 176.578 1297.26 179.128C1298.64 182.708 1278.66 181.173 1276.98 181.173C1267.15 181.173 1253.62 178.109 1244.43 182.196C1241.48 183.51 1239.1 184.955 1236.43 187.822C1235.17 189.177 1233.85 190.891 1233.23 194.471C1232.16 200.608 1233.92 203.632 1234.83 206.746C1237.49 211.86 1242.74 213.317 1247.1 214.488C1255.57 216.762 1266.63 215.797 1275.38 215.952C1291.5 216.237 1304.25 215.174 1320.34 214.488" stroke="#FFB834" stroke-width="3.00041" stroke-linecap="round"/>
</g>
<defs>
<clipPath id="clip0_200_1969">
<rect width="1440.2" height="803.11" fill="white"/>
</clipPath>
</defs>
</svg>
