<svg width="1441" height="804" viewBox="0 0 1441 804" fill="none" xmlns="http://www.w3.org/2000/svg">
<g clip-path="url(#clip0_200_3660)">
<path d="M337.692 445.282C234.798 422.683 69.6952 347.038 0.00537109 312.04V803.107H1440.2V476.357C1422.56 497.7 1374.68 544.155 1324.29 559.221C1261.3 578.054 1121.23 573.423 1099.53 579.073C1080.73 583.966 910.57 633.218 815.298 620.976C720.026 608.735 712.429 501.31 585.929 445.282C459.429 389.255 466.309 473.532 337.692 445.282Z" fill="#F0AA76"/>
<path d="M177.17 494.566H0.00537109V803.107H1002.14C995.501 799.512 972.956 788.852 935.907 774.973C889.597 757.623 851.902 773.566 851.902 774.973C851.902 776.098 832.517 751.684 822.824 739.336H778.129L714.048 709.795L688.739 678.847L675.276 598.664L606.888 525.514L373.181 487.064L177.17 494.566Z" fill="#EA9570"/>
<path d="M395.058 797.106C403.698 787.984 409.664 776.543 418.268 767.209C420.95 764.299 428.666 757.486 429.599 753.861C432.74 741.651 454.562 735.386 465.788 730.904C483.868 723.686 501.772 716.748 521.274 712.989C527.954 711.701 537.588 711.354 542.768 706.879C551.496 699.339 554.144 689.894 556.708 679.651C558.746 671.508 557.945 663.975 563.781 656.693C571.997 646.441 585.877 641.042 594.064 631.363C596.095 628.963 599.07 628.229 601.481 626.262C605.669 622.845 608.673 618.373 612.125 614.398C622.384 602.581 630.706 590.032 636.091 576.076" stroke="#AF290D" stroke-width="3.00041" stroke-linecap="round"/>
<path d="M651.095 580.076C655.756 580.972 658.732 591.942 660.478 595.245C665.278 604.329 670.526 612.51 672.901 622.429C675.259 632.283 676.115 641.692 676.115 651.716C676.115 666.98 674.853 679.011 687.93 690.315C698.459 699.416 708.945 716.581 724.677 719.301C746.931 723.148 768.634 736.873 791.831 736.873C801.413 736.873 803.584 737.723 809.813 743.707C815.807 749.463 818.949 758.672 824.669 763.907C829.588 768.41 841.989 766.611 848.212 766.611C865.577 766.611 880.966 765.718 897.295 771.191C910.984 775.779 922.9 773.369 936.91 773.369C943.259 773.369 951.961 772.562 956.804 776.748C963.678 782.69 975.056 790.307 985.141 798.106" stroke="#AF290D" stroke-width="3.00041" stroke-linecap="round"/>
<path d="M545.078 703.094C553.895 717.452 576.159 724.368 593.013 728.839C600.109 730.721 609.238 730.912 614.23 736.292C621.749 744.394 623.855 756.694 631.169 765.425C637.015 772.403 640.98 779.057 644.092 787.105" stroke="#AF290D" stroke-width="3.00041" stroke-linecap="round"/>
<path d="M614.086 738.098C609.581 742.462 604.793 748.402 598.34 750.833C593.815 752.538 581.201 750.447 581.201 755.627C581.201 759.869 580.739 765.153 578.765 769.037C577.936 770.669 574.27 773.12 571.081 784.104" stroke="#AF290D" stroke-width="3.00041" stroke-linecap="round"/>
<path d="M580.086 765.273C590.744 758.618 605.308 758.139 611.068 765.273C616.668 772.209 626.065 781.334 633.093 769.082" stroke="#AF290D" stroke-width="3.00041" stroke-linecap="round"/>
<path d="M574.084 721.781C574.821 716.88 597.598 703.945 602.924 701.995C608.365 700.003 616.163 699.379 622.287 701.077C630.152 703.258 629.252 706.968 629.252 713.725C629.252 720.291 635.958 720.477 643.01 721.781C652.165 723.473 651.678 720.845 656.769 727.434C665.488 738.718 671.984 751.513 681.908 762.129C685.293 765.75 686.986 773.222 689.636 777.462C691.827 780.967 699.514 794.36 701.102 797.106" stroke="#AF290D" stroke-width="3.00041" stroke-linecap="round"/>
<path d="M556.079 686.347C564.807 686.347 574.811 694.329 583.467 691.603C590.353 689.433 591.28 681.571 597.434 680.602C605.906 680.602 610.537 676.405 612.242 677.186C615.372 678.622 618.048 684.281 619.144 687.024C620.39 690.143 620.043 701.81 620.043 698.51" stroke="#AF290D" stroke-width="3.00041" stroke-linecap="round"/>
<path d="M620.088 607.081C620.586 610.959 626.968 615.076 627.836 619.953C628.911 625.998 627.923 632.79 627.923 638.923C627.923 641.142 642.055 639.754 645.944 640.127C650.579 640.573 646.609 627.758 649.078 626.05C662.147 617.01 658.934 641.538 659.263 646.375C659.419 648.661 665.87 653.855 667.447 655.559C669.239 657.496 676.096 663.489 676.096 666.089" stroke="#AF290D" stroke-width="3.00041" stroke-linecap="round"/>
<path d="M603.085 626.083C604.033 633.403 610.736 641.761 613.738 648.716C615.005 651.653 615.271 658.876 617.579 660.857C620.148 663.061 635.299 666.354 639.233 666.553C648.381 667.015 643.089 684.09 656.871 684.09C660.382 684.09 678.586 683.984 680.096 681.392" stroke="#AF290D" stroke-width="3.00041" stroke-linecap="round"/>
<path d="M763.109 731.097C765.612 738.836 765.612 749.704 765.612 757.137C765.612 765.312 766.714 764.514 776.604 764.514C784.57 764.514 793.643 764.165 799.46 769.133C801.242 770.656 807.181 777.805 809.579 777.926C819.865 778.443 825.961 763.056 834.354 775.243C837.791 780.235 841.374 791.946 844.12 797.106" stroke="#AF290D" stroke-width="3.00041" stroke-linecap="round"/>
<path d="M857.123 766.102C857.538 769.747 864.614 789.032 868.139 789.032C873.896 789.032 895.153 790.207 895.309 784.629C895.5 777.741 893.788 766.404 900.76 777.416C905.145 784.342 926.375 790.658 931.133 798.106" stroke="#AF290D" stroke-width="3.00041" stroke-linecap="round"/>
<path d="M707.102 767.102C713.532 768.292 709.231 777.472 715.103 779.103" stroke="#AF290D" stroke-width="3.00041" stroke-linecap="round"/>
<path d="M649.095 771.103C650.278 774.535 651.406 777.149 652.095 780.104" stroke="#AF290D" stroke-width="3.00041" stroke-linecap="round"/>
<path d="M657.097 771.103C659.598 774.103 660.117 774.868 663.098 777.104" stroke="#AF290D" stroke-width="3.00041" stroke-linecap="round"/>
<path d="M571.081 673.089C574.642 673.089 578.672 674.956 581.082 676.09" stroke="#AF290D" stroke-width="3.00041" stroke-linecap="round"/>
<path d="M581.084 663.087C584.099 665.767 586.664 668.321 590.085 671.088" stroke="#AF290D" stroke-width="3.00041" stroke-linecap="round"/>
<path d="M745.109 753.1C745.109 755.489 750.11 758.386 750.11 762.101" stroke="#AF290D" stroke-width="3.00041" stroke-linecap="round"/>
<path d="M731.104 771.103C731.104 787.083 749.798 784.852 762.149 784.852C766.887 784.852 771.972 783.416 773.877 787.755C776.286 793.242 776.289 793.107 779.111 798.107" stroke="#AF290D" stroke-width="3.00041" stroke-linecap="round"/>
<path d="M772.109 784.104C772.109 777.909 790.6 772.959 794.112 767.102" stroke="#AF290D" stroke-width="3.00041" stroke-linecap="round"/>
<path d="M481.068 726.097C481.068 731.617 486.458 747.453 492.691 750.553C501.269 754.819 512.49 753.27 522.44 753.27C537.761 753.27 536.51 761.051 540.047 772.594C541.144 776.175 544.988 798.145 545.077 798.106" stroke="#AF290D" stroke-width="3.00041" stroke-linecap="round"/>
<path d="M494.075 750.1C496.062 734.675 508.663 735.77 523.112 735.078C529.396 734.777 527.932 715.633 527.932 712.095" stroke="#AF290D" stroke-width="3.00041" stroke-linecap="round"/>
<path d="M524.079 734.415C526.434 734.213 550.233 725.654 550.577 730.67C550.94 735.969 554.109 742.507 556.468 747.311C559.753 754.002 559.859 753.375 567.73 756.375C572.835 758.32 574.108 762.824 577.086 764.101" stroke="#AF290D" stroke-width="3.00041" stroke-linecap="round"/>
<path d="M559.082 751.1C560.507 739.223 575.084 734.821 575.084 723.096" stroke="#AF290D" stroke-width="3.00041" stroke-linecap="round"/>
<path d="M665.094 719.096C667.57 723.188 669.73 726.344 671.095 730.097" stroke="#AF290D" stroke-width="3.00041" stroke-linecap="round"/>
<path d="M678.096 716.095V728.096" stroke="#AF290D" stroke-width="3.00041" stroke-linecap="round"/>
<path d="M428.065 758.1C429.181 769.649 447.748 773.218 450.959 777.82C454.401 782.752 455.069 792.557 455.069 798.106" stroke="#AF290D" stroke-width="3.00041" stroke-linecap="round"/>
<path d="M414.061 773.102C417.213 773.444 429.469 784.18 431.063 797.105" stroke="#AF290D" stroke-width="3.00041" stroke-linecap="round"/>
<path d="M404.063 786.105C411.825 786.846 413.86 795.329 420.065 797.106" stroke="#AF290D" stroke-width="3.00041" stroke-linecap="round"/>
<path d="M1.00293 509.983C16.2514 509.983 31.5106 512.711 46.7149 512.711C57.6377 512.711 67.9135 511.291 79.8167 508.317C112.382 500.178 148.799 497.711 182.625 497.711C228.761 497.711 273.971 493.62 319.936 493.62C337.52 493.62 364.412 488.392 378.959 497.105C382.534 499.246 385.619 502.909 389.467 504.529C398.671 508.402 412.034 507.164 421.868 507.256C452.682 507.546 484.417 513.974 514.869 515.438C520.193 515.694 532.874 514.214 536.586 517.104C539.122 519.078 538.244 521.471 542.016 522.559C548.17 524.333 554.136 524.832 560.581 524.983C564.72 525.08 567.786 527.628 571.965 527.71C579.197 527.852 586.448 527.71 593.682 527.71C602.556 527.71 606.403 534.934 611.021 541.044C615.989 547.616 621.452 559.074 633.089 559.074" stroke="#AF290D" stroke-width="3.00041" stroke-linecap="round"/>
<path d="M11.0059 639.753C18.8538 643.229 27.4452 650.073 30.0525 652.583C33.2288 655.641 37.42 659.874 41.8579 660.088C41.9787 660.093 40.093 653.868 39.9881 653.519C38.3986 648.241 35.2581 641.127 41.8579 649.47C42.304 650.034 48.6699 656.976 49.1294 656.578C50.0183 655.808 49.3275 652.171 49.3372 651.36C49.416 644.736 51.1636 640.114 54.0117 634.084" stroke="#AF290D" stroke-width="3.00041" stroke-linecap="round"/>
<path d="M36.5568 681.09C30.5189 680.513 17.3218 674.448 14.3928 669.868C11.4937 665.335 25.8862 669.383 29.5141 670.224C33.864 671.234 29.0148 665.35 28.6337 664.302C27.538 661.287 31.8427 661.983 33.864 662.743C41.7226 665.7 42.4434 670.33 44.0139 677.082" stroke="#AF290D" stroke-width="3.00041" stroke-linecap="round"/>
<path d="M50.0103 681.185C51.1565 678.4 53.7071 669.839 58.9491 670.094C59.8516 670.138 59.3648 677.523 59.3648 678.321C59.3648 680.366 59.3648 682.412 59.3648 684.457C59.3648 686.925 60.5187 687.514 62.0909 686.705C65.2059 685.102 67.1486 683.297 68.4473 686.705C70.8755 693.076 64.9229 698.933 61.2358 704.093" stroke="#AF290D" stroke-width="3.00041" stroke-linecap="round"/>
<path d="M1.00293 728.517C15.8859 725.602 33.342 738.482 43.3093 747.023C45.8882 749.232 48.7221 752.31 50.3691 755.133C51.1965 756.551 53.5566 759.761 52.5655 755.939C50.8101 749.171 52.7667 743.253 55.6509 737.075C56.0103 736.305 59.4132 741.022 62.1069 745.288C64.8005 749.554 65.0117 765.66 65.0117 776.103" stroke="#AF290D" stroke-width="3.00041" stroke-linecap="round"/>
<path d="M5.00439 766.093C12.4333 759.859 23.7253 761.966 32.2746 765.394C33.184 765.758 39.5717 768.942 38.091 769.085C33.1608 769.563 28.2306 772.666 26.1702 776.142C25.1004 777.947 23.3018 781.805 24.3432 783.85C25.076 785.289 34.3897 780.159 34.3897 780.159C46.5511 774.161 47.4161 779.432 55.0112 783.85" stroke="#AF290D" stroke-width="3.00041" stroke-linecap="round"/>
<path d="M9.00537 567.828C33.1434 556.173 55.931 544.04 81.7102 535.149C92.4784 531.435 100.275 531.946 103.21 542.913C105.745 552.387 134.265 539.024 134.265 547.517C134.265 556.341 134.952 564.727 136.135 573.469C136.62 577.057 140.129 581.473 136.135 584.076" stroke="#AF290D" stroke-width="3.00041" stroke-linecap="round"/>
<path d="M9.00537 577.355C15.5915 575.552 22.537 573.953 29.4973 574.082C35.6988 574.197 39.1089 577.2 44.2913 579.355C52.6457 582.83 64.3264 583.538 72.1018 578.128C78.7978 573.469 84.1492 568.879 91.8096 565.899C104.348 561.02 128.189 560.958 135.023 549.072" stroke="#AF290D" stroke-width="3.00041" stroke-linecap="round"/>
<path d="M44.0137 597.243C54.7738 601.495 68.3169 603.364 77.9617 596.694C80.6389 594.842 83.0338 592.111 83.9383 590.703C86.7609 586.311 91.6563 583.22 96.0208 580.076" stroke="#AF290D" stroke-width="3.00041" stroke-linecap="round"/>
<path d="M103.019 578.077C104.955 578.077 108.34 577.507 111.02 577.077" stroke="#AF290D" stroke-width="3.00041" stroke-linecap="round"/>
<path d="M145.027 586.077C153.492 586.077 155.528 591.018 161.103 594.954C163.009 596.299 165.862 592.569 168.363 593.673C171.183 594.916 172.332 597.614 173.031 600.079" stroke="#AF290D" stroke-width="3.00041" stroke-linecap="round"/>
<path d="M103.019 610.08C107.828 613.582 111.097 616.912 116.021 619.081" stroke="#AF290D" stroke-width="3.00041" stroke-linecap="round"/>
<path d="M112.019 610.08C116.204 611.373 121.579 615.222 123.021 619.081" stroke="#AF290D" stroke-width="3.00041" stroke-linecap="round"/>
<path d="M127.379 618.081C126.94 614.831 122.043 604.113 127.804 602.08C127.971 602.02 129.875 608.423 130.207 609.123C131.471 611.782 132.912 614.916 135.022 617.294" stroke="#AF290D" stroke-width="3.00041" stroke-linecap="round"/>
<path d="M144.024 617.082C144.024 613.696 144.577 610.432 145.024 607.081" stroke="#AF290D" stroke-width="3.00041" stroke-linecap="round"/>
<path d="M176.028 604.079C180.599 593.15 189.084 587.284 199.031 580.076" stroke="#AF290D" stroke-width="3.00041" stroke-linecap="round"/>
<path d="M199.034 579.076C198.616 585.174 190.033 593.46 190.033 598.078" stroke="#AF290D" stroke-width="3.00041" stroke-linecap="round"/>
<path d="M3.00342 537.071C10.4595 543.128 17.0053 552.356 17.0053 562.074" stroke="#AF290D" stroke-width="3.00041" stroke-linecap="round"/>
<path d="M12.0088 534.07C18.5003 541.813 24.0104 549.243 24.0104 559.073" stroke="#AF290D" stroke-width="3.00041" stroke-linecap="round"/>
<path d="M2.00586 547.072C9.03576 549.863 11.2984 561.456 9.32283 567.075" stroke="#AF290D" stroke-width="3.00041" stroke-linecap="round"/>
<path d="M136.021 570.802C142.442 570.193 157.663 570.904 160.479 565.488C164.883 557.018 176.62 552.265 185.636 548.625C190.369 546.715 194.439 545.883 196.91 550.231C200.144 555.922 202.433 554.479 209.332 555.228C213.43 555.673 218.009 555.695 221.702 556.655C225.395 557.616 226.752 560.165 228.055 561.708C231.247 565.488 233.903 569.43 236.035 573.076" stroke="#AF290D" stroke-width="3.00041" stroke-linecap="round"/>
<path d="M192.649 555.074C192.649 559.22 182.842 565.614 189.139 569.195C194.966 571.499 199.554 571.038 205.032 571.038" stroke="#AF290D" stroke-width="3.00041" stroke-linecap="round"/>
<path d="M213.032 569.075C213.032 566.813 218.632 565.074 221.033 565.074" stroke="#AF290D" stroke-width="3.00041" stroke-linecap="round"/>
<path d="M203.034 587.526C205.131 593.722 214.228 593.675 217.099 592.387C218.835 591.608 223.267 588.499 224.131 587.105C228.84 579.498 240.95 585.002 248.04 585.002" stroke="#AF290D" stroke-width="3.00041" stroke-linecap="round"/>
<path d="M63.0117 548.113C69.9239 549.019 73.7801 550.218 80.5581 546.754C83.2166 545.396 84.6258 542.112 86.4428 541.293C88.5644 540.336 90.7686 539.709 93.0158 539.071" stroke="#AF290D" stroke-width="3.00041" stroke-linecap="round"/>
<path d="M0.00537109 686.091C14.1091 686.091 35.708 693.744 44.9234 703.366C45.1161 703.568 45.3736 703.681 45.6523 703.681C48.0207 703.681 56.6798 703.681 56.6798 703.681C65.0299 703.681 66.8824 707.577 75.2181 708.986C79.8022 709.76 88.0833 708.602 91.9893 710.734C106.789 718.814 115.317 735.275 129.873 743.664C133.342 745.663 137.496 746.135 141.565 746.135C145.93 746.135 150.295 746.135 154.661 746.135C161.784 746.135 170.029 756.407 170.029 762.101" stroke="#AF290D" stroke-width="3.00041" stroke-linecap="round"/>
<path d="M127.021 767.102C133.492 767.102 144.704 771.889 147.024 773.102" stroke="#AF290D" stroke-width="3.00041" stroke-linecap="round"/>
<path d="M142.023 766.102C146.496 766.252 154.556 771.239 156.025 775.103" stroke="#AF290D" stroke-width="3.00041" stroke-linecap="round"/>
<path d="M166.025 773.102C166.511 763.89 173.959 758.189 181.027 752.1" stroke="#AF290D" stroke-width="3.00041" stroke-linecap="round"/>
<path d="M182.03 751.099C182.03 755.812 181.262 761.108 178.029 765.101" stroke="#AF290D" stroke-width="3.00041" stroke-linecap="round"/>
<path d="M3.00342 709.094C19.3755 711.414 41.3391 716.978 46.0887 721.665C49.0833 723.705 51.7597 726.097 56.1558 726.097C61.4031 726.097 66.5424 724.559 71.9085 724.559C75.3765 724.559 78.5571 725.293 81.8713 725.373C86.2757 725.479 90.2515 725.373 95.016 724.559" stroke="#AF290D" stroke-width="3.00041" stroke-linecap="round"/>
<path d="M80.0146 737.098C86.5669 737.098 94.2414 737.098 101.018 735.098" stroke="#AF290D" stroke-width="3.00041" stroke-linecap="round"/>
<path d="M106.017 733.097C107.966 732.553 110.928 730.625 112.018 730.097" stroke="#AF290D" stroke-width="3.00041" stroke-linecap="round"/>
<path d="M119.024 752.1C121.198 754.103 125.17 758.772 129.474 759.773C134.406 760.92 142.601 758.911 146.028 756.023" stroke="#AF290D" stroke-width="3.00041" stroke-linecap="round"/>
<path d="M153.024 754.1C156.874 753.099 160.304 751.945 164.025 751.099" stroke="#AF290D" stroke-width="3.00041" stroke-linecap="round"/>
<path d="M375.207 749.1C369.213 749.1 347.548 749.226 348.06 756.97C348.364 761.57 364.719 758.447 366.99 761.691C368.895 764.414 384.596 762.537 388.104 761.516C390.596 760.791 392.057 757.798 392.057 755.789C392.057 751.366 385.612 750.314 381.76 749.1" stroke="#AF290D" stroke-width="3.00041" stroke-linecap="round"/>
<path d="M336.843 758.1C330.178 758.21 323.741 759.483 318.004 762.419C313.436 764.758 317.963 768.17 320.437 768.947C325.365 770.495 333.749 768.079 338.948 768.414C342.627 768.651 351.051 772.758 351.051 767.224C351.051 762.235 344.703 762.987 343.5 759.963" stroke="#AF290D" stroke-width="3.00041" stroke-linecap="round"/>
<path d="M348.404 738.983C346.492 738.631 329.699 735.677 332.33 742.987C334.435 747.099 341 747.099 346.011 747.099C349.149 747.099 356.068 746.642 358.114 744.358C361.797 740.246 353.573 738.681 352.121 738.176" stroke="#AF290D" stroke-width="3.00041" stroke-linecap="round"/>
<path d="M408.466 725.362C401.604 724.472 381.298 725.567 385.67 732.523C389.026 737.861 407.55 738.425 413.427 737.975C416.299 737.755 433.072 737.052 432.018 732.174C431.01 727.501 417.883 727.493 413.427 726.242" stroke="#AF290D" stroke-width="3.00041" stroke-linecap="round"/>
<path d="M83.9386 779.132C80.7368 779.132 66.6098 778.442 68.1302 783.957C69.5235 789.012 74.9914 789.726 76.592 789.817C84.595 790.272 95.1067 790.945 100.375 785.163C103.954 781.236 91.5713 781.544 89.5919 781.544" stroke="#AF290D" stroke-width="3.00041" stroke-linecap="round"/>
<path d="M41.7824 783.104C40.5026 783.432 16.351 789.637 24.7979 793.159C26.9747 794.067 33.3943 794.451 35.6491 793.728C37.5786 793.109 40.3301 790.973 42.2542 790.973C47.1665 790.973 51.1885 792.025 55.9362 792.591C57.5248 792.78 63.9721 793.721 65.6661 792.591C67.36 791.461 62.4602 788.629 60.323 787.293" stroke="#AF290D" stroke-width="3.00041" stroke-linecap="round"/>
<path d="M1.00293 775.103C6.15613 775.547 13.1871 777.09 16.3338 780.575C20.4845 785.171 4.15674 796.02 1.00293 797.106" stroke="#AF290D" stroke-width="3.00041" stroke-linecap="round"/>
<path d="M219.034 705.094C228.028 707.29 236.153 710.85 241.037 716.096" stroke="#AF290D" stroke-width="3.00041" stroke-linecap="round"/>
<path d="M234.036 699.092C240.833 703.409 245.496 707.133 250.038 713.094" stroke="#AF290D" stroke-width="3.00041" stroke-linecap="round"/>
<path d="M256.828 710.094C255.022 699.428 255.747 693.221 265.039 686.091" stroke="#AF290D" stroke-width="3.00041" stroke-linecap="round"/>
<path d="M308.049 662.088C322.549 657.411 336.053 654.997 351.47 653.331C365.648 651.798 379.953 652.281 394.061 650.086" stroke="#AF290D" stroke-width="3.00041" stroke-linecap="round"/>
<path d="M403.06 649.085C411.732 647.04 422.163 647.175 430.209 643.357C433.655 641.723 433.018 634.247 433.018 631.083" stroke="#AF290D" stroke-width="3.00041" stroke-linecap="round"/>
<path d="M474.671 676.089C471.151 669.854 473.81 665.816 479.048 660.834C488.366 651.971 501.024 644.906 513.077 639.084" stroke="#AF290D" stroke-width="3.00041" stroke-linecap="round"/>
<path d="M484.072 673.089C487.299 661.229 502.243 656.257 505.018 657.199C505.595 657.395 501.588 662.256 501.588 662.256C499.13 665.334 498 667.202 498 669.954" stroke="#AF290D" stroke-width="3.00041" stroke-linecap="round"/>
<path d="M506.073 669.088C504.663 672.736 503.375 676.415 502.072 680.09" stroke="#AF290D" stroke-width="3.00041" stroke-linecap="round"/>
<path d="M480.07 725.097C475.819 723.006 469.283 719.052 464.333 718.397C457.286 717.464 458.306 708.842 455.697 704.246C453.242 699.922 450.17 694.697 447.008 690.766C445.773 689.23 441.482 690.77 440.089 690.99C430.242 692.549 414.316 694.972 401.059 694.972" stroke="#AF290D" stroke-width="3.00041" stroke-linecap="round"/>
<path d="M415.063 705.094C420.321 705.334 439.562 708.545 440.475 714.087C441.051 717.583 442.102 720.721 445.033 723.262C448.277 726.074 443.038 728.732 440.999 730.892C438.63 733.402 437.765 739.322 439.367 742.099" stroke="#AF290D" stroke-width="3.00041" stroke-linecap="round"/>
<path d="M441.066 742.021C446.632 744.515 461.648 747.544 467.406 745.333C474.885 742.461 477.87 739.571 486.073 742.021" stroke="#AF290D" stroke-width="3.00041" stroke-linecap="round"/>
<path d="M544.424 703.094C543.889 698.976 534.154 694.69 530.335 693.058C528.56 692.299 521.545 690.754 520.734 689.445C518.054 685.118 524.275 682.399 526.996 679.409C529.712 676.424 527.269 673.625 526.631 670.623C524.708 661.584 538.83 658.375 547.242 660.944C551.393 662.211 554.951 672.766 557.083 676.484" stroke="#AF290D" stroke-width="3.00041" stroke-linecap="round"/>
<path d="M520.077 689.484C516.544 688.29 506.29 689.214 503.058 690.333C497.941 692.103 490.081 696.36 484.422 696.079C483.062 696.011 476.782 689.306 474.79 688.122C473.158 687.153 471.348 685.144 471.23 683.349C471.042 680.481 466.396 681.125 463.692 680.917C461.943 680.783 443.067 679.315 443.067 677.381C443.067 675.16 457.381 669.603 459.923 673.359C461.314 675.415 465.243 681.063 467.788 681.063" stroke="#AF290D" stroke-width="3.00041" stroke-linecap="round"/>
<path d="M405.061 780.95C396.868 780.084 381.213 768.136 373.824 777.954C370.976 781.738 365.224 790.765 358.688 785.852C354.011 782.336 339.99 796.85 334.052 798.106" stroke="#AF290D" stroke-width="3.00041" stroke-linecap="round"/>
<path d="M265.043 782.104C269.77 783.444 274.384 786.868 276.044 791.105" stroke="#AF290D" stroke-width="3.00041" stroke-linecap="round"/>
<path d="M277.042 777.104C284.237 778.402 288.497 791.524 290.043 797.106" stroke="#AF290D" stroke-width="3.00041" stroke-linecap="round"/>
<path d="M301.998 797.107C298.938 793.971 299.137 787.105 305.047 787.105" stroke="#AF290D" stroke-width="3.00041" stroke-linecap="round"/>
<path d="M310.049 788.104V797.106" stroke="#AF290D" stroke-width="3.00041" stroke-linecap="round"/>
<path d="M227.674 721.095C215.921 733.808 246.709 748.775 256.04 752.099" stroke="#AF290D" stroke-width="3.00041" stroke-linecap="round"/>
<path d="M274.043 753.101C280.062 752.198 286.052 751.099 292.046 750.1" stroke="#AF290D" stroke-width="3.00041" stroke-linecap="round"/>
<path d="M256.038 583.076C274.698 579.39 294.04 580.282 313.045 579.076" stroke="#AF290D" stroke-width="3.00041" stroke-linecap="round"/>
<path d="M555.081 573.076C564.178 573.833 569.594 584.865 572.083 591.078" stroke="#AF290D" stroke-width="3.00041" stroke-linecap="round"/>
<path d="M572.083 573.075C577.748 576.969 583.085 583.998 583.085 591.078" stroke="#AF290D" stroke-width="3.00041" stroke-linecap="round"/>
<path d="M596.086 586.078C596.086 577.682 595.899 574.095 604.087 569.075" stroke="#AF290D" stroke-width="3.00041" stroke-linecap="round"/>
<path d="M635.09 565.075C639.074 558.64 642.262 556.586 649.092 553.073" stroke="#AF290D" stroke-width="3.00041" stroke-linecap="round"/>
<path d="M655.095 561.074C652.708 567.089 649.833 572.103 645.093 578.077" stroke="#AF290D" stroke-width="3.00041" stroke-linecap="round"/>
<path d="M501.075 613.785C507.768 613.785 533.935 608.155 538.58 613.141C544.537 619.535 534.609 628.248 550.581 626.954C558.979 626.273 570.084 627.37 570.084 617.005C570.084 612.456 553.486 612.122 550.581 613.785" stroke="#AF290D" stroke-width="3.00041" stroke-linecap="round"/>
<path d="M584.527 624.067C598.35 623.398 609.207 595.173 583.653 605.252C583.275 605.401 583.01 605.774 582.959 606.177C582.254 611.774 573.694 624.591 584.527 624.067Z" stroke="#AF290D" stroke-width="3.00041" stroke-linecap="round"/>
<path d="M494.072 750.1C492.593 761.303 489.23 775.089 478.292 781.047C476.382 782.087 476.772 789.825 474.069 797.107" stroke="#AF290D" stroke-width="3.00041" stroke-linecap="round"/>
<path d="M478.07 782.32C483.619 782.32 502.062 781.161 506.047 784.205C510.065 787.274 512.391 790.833 510.279 797.106" stroke="#AF290D" stroke-width="3.00041" stroke-linecap="round"/>
<path d="M506.074 784.104C506.074 775.723 524.933 766.102 528.077 754.1" stroke="#AF290D" stroke-width="3.00041" stroke-linecap="round"/>
<path d="M0.00537109 415.631C9.54667 414.257 23.3296 415.384 29.4075 418.535C34.5405 421.195 40.0501 424.237 43.6435 428.419C48.9606 434.608 51.8651 443.648 59.0318 448.586C70.5833 456.545 87.5263 454.901 101.367 452.931C118.369 450.512 139.235 451.353 155.158 457.163C165.093 460.789 170.252 466.744 177.563 472.87C181.938 476.537 186.827 475.994 192.646 477.103C200.031 478.509 208.74 487.544 212.034 493.065" stroke="#B56370" stroke-width="3.00041" stroke-linecap="round"/>
<path d="M16.0049 461.061C24.3478 462.368 27.9542 468.714 35.0075 472.063" stroke="#B56370" stroke-width="3.00041" stroke-linecap="round"/>
<path d="M27.0112 458.06C32.6395 459.988 37.1072 461.833 40.9097 465.858C42.2681 467.296 43.4648 468.76 45.0137 470.062" stroke="#B56370" stroke-width="3.00041" stroke-linecap="round"/>
<path d="M40.0122 457.06C45.8389 460.911 48.9177 464.249 53.014 469.062" stroke="#B56370" stroke-width="3.00041" stroke-linecap="round"/>
<path d="M81.0171 464.061C91.7394 464.061 98.5774 472.177 108.021 475.063" stroke="#B56370" stroke-width="3.00041" stroke-linecap="round"/>
<path d="M101.019 464.061C108.151 466.201 115.902 468.382 121.021 473.062" stroke="#B56370" stroke-width="3.00041" stroke-linecap="round"/>
<path d="M117.023 464.061C121.741 465.765 125.24 467.499 128.831 470.612C130.444 472.01 131.912 473.33 134.026 474.062" stroke="#B56370" stroke-width="3.00041" stroke-linecap="round"/>
<path d="M134.026 463.061C138.135 465.004 142.881 467.053 146.028 470.062" stroke="#B56370" stroke-width="3.00041" stroke-linecap="round"/>
<path d="M9.00537 429.191C15.4864 427.989 20.189 435.165 25.0076 438.058" stroke="#B56370" stroke-width="3.00041" stroke-linecap="round"/>
<path d="M20.0063 427.056C22.8318 429.254 26.4108 432.959 30.0077 434.057" stroke="#B56370" stroke-width="3.00041" stroke-linecap="round"/>
<path d="M12.0088 496.065C16.4697 498.532 19.2854 501.434 22.0102 505.067" stroke="#B56370" stroke-width="3.00041" stroke-linecap="round"/>
<path d="M21.0093 496.065C25.2969 499.764 28.9122 505.202 34.0111 508.067" stroke="#B56370" stroke-width="3.00041" stroke-linecap="round"/>
<path d="M30.0093 338.044C37.5927 342.669 43.5456 349.128 50.4572 354.452C56.1405 358.831 62.4689 362.237 67.8757 366.923C73.6886 371.961 86.3694 369.677 93.9615 370.35C100.304 370.913 106.214 373.295 112.39 373.486C118.779 373.684 125.556 377.565 130.397 380.779C140.607 387.556 150.828 394.254 161.027 401.053" stroke="#B56370" stroke-width="3.00041" stroke-linecap="round"/>
<path d="M181.027 403.052C187.223 405.718 199.447 415.691 204.03 420.055" stroke="#B56370" stroke-width="3.00041" stroke-linecap="round"/>
<path d="M189.028 423.056C184.707 430.649 181.027 437.477 181.027 446.059" stroke="#B56370" stroke-width="3.00041" stroke-linecap="round"/>
<path d="M195.032 427.056C200.663 433.92 205.911 440.155 209.034 448.059" stroke="#B56370" stroke-width="3.00041" stroke-linecap="round"/>
<path d="M193.033 444.059C188.032 450.534 188.032 455.601 188.032 458.061" stroke="#B56370" stroke-width="3.00041" stroke-linecap="round"/>
<path d="M195.032 451.06C197.551 454.067 200.371 456.627 202.033 460.061" stroke="#B56370" stroke-width="3.00041" stroke-linecap="round"/>
<path d="M193.031 465.061C199.128 465.061 210.037 467.667 213.034 473.062" stroke="#B56370" stroke-width="3.00041" stroke-linecap="round"/>
<path d="M175.028 407.053C171.43 410.871 163.15 419.491 161.026 424.056" stroke="#B56370" stroke-width="3.00041" stroke-linecap="round"/>
<path d="M174.028 417.054C177.388 419.572 179.986 422.35 183.029 425.055" stroke="#B56370" stroke-width="3.00041" stroke-linecap="round"/>
<path d="M175.032 426.055C172.284 430.355 167.144 433.21 164.03 437.057" stroke="#B56370" stroke-width="3.00041" stroke-linecap="round"/>
<path d="M173.032 438.058C170.196 440.872 167.749 444.025 164.03 446.059" stroke="#B56370" stroke-width="3.00041" stroke-linecap="round"/>
<path d="M17.0079 344.335C17.0079 343.634 16.82 344.384 16.5912 344.691C14.559 347.419 12.2581 349.987 10.257 352.738C7.30919 356.789 2.00586 362.979 2.00586 368.048" stroke="#B56370" stroke-width="3.00041" stroke-linecap="round"/>
<path d="M18.0054 355.047C23.724 358.147 35.0077 365.08 35.0077 372.049" stroke="#B56370" stroke-width="3.00041" stroke-linecap="round"/>
<path d="M16.0049 364.048C22.2463 367.246 26.588 373.603 30.0068 379.05" stroke="#B56370" stroke-width="3.00041" stroke-linecap="round"/>
<path d="M13.0068 372.048C16.9312 375.58 20.6217 380.243 22.0081 385.05" stroke="#B56370" stroke-width="3.00041" stroke-linecap="round"/>
<path d="M18.0083 390.051C13.1375 392.655 6.1939 399.33 4.00635 404.053" stroke="#B56370" stroke-width="3.00041" stroke-linecap="round"/>
<path d="M19.0093 397.052C14.9844 399.025 9.15317 404.011 8.00781 408.053" stroke="#B56370" stroke-width="3.00041" stroke-linecap="round"/>
<path d="M20.0063 397.052C26.0797 399.163 30.835 406.742 36.0085 410.054" stroke="#B56370" stroke-width="3.00041" stroke-linecap="round"/>
<path d="M101.019 387.05C100.071 388.117 95.8273 391.968 90.0176 399.052" stroke="#B56370" stroke-width="3.00041" stroke-linecap="round"/>
<path d="M104.022 391.051C107.4 393.189 110.085 395.559 113.023 398.052" stroke="#B56370" stroke-width="3.00041" stroke-linecap="round"/>
<path d="M76.0165 349.046C72.8316 350.957 67.3225 353.648 66.0151 357.047" stroke="#B56370" stroke-width="3.00041" stroke-linecap="round"/>
<path d="M76.0132 354.046C79.4495 356.387 82.8608 359.814 87.0147 361.047" stroke="#B56370" stroke-width="3.00041" stroke-linecap="round"/>
<path d="M76.0146 360.047C73.6309 360.994 71.5942 362.55 69.0137 363.047" stroke="#B56370" stroke-width="3.00041" stroke-linecap="round"/>
<path d="M259.042 438.058C267.036 443.511 275.041 451.02 284.045 455.06" stroke="#B56370" stroke-width="3.00041" stroke-linecap="round"/>
<path d="M267.044 436.057C275.593 440.838 283.113 446.594 291.047 452.06" stroke="#B56370" stroke-width="3.00041" stroke-linecap="round"/>
<path d="M252.04 430.057C247.33 430.89 241.499 438.785 237.67 441.402C234.459 443.598 231.262 446.059 227.037 446.059" stroke="#B56370" stroke-width="3.00041" stroke-linecap="round"/>
<path d="M243.039 427.056C240.026 432.678 232.849 439.058 225.036 439.058" stroke="#B56370" stroke-width="3.00041" stroke-linecap="round"/>
<path d="M235.036 420.055C229.894 423.639 224.147 426.477 219.034 430.056" stroke="#B56370" stroke-width="3.00041" stroke-linecap="round"/>
<path d="M307.046 446.059C317.362 446.466 323.944 450.598 332.293 455.339C334.875 456.805 340.613 461.219 343.831 461.366C345.448 461.44 347.791 459.018 349.196 458.408C353.856 456.384 359.223 456.705 364.139 455.376C372.497 453.118 380.367 451.584 388.961 450.755C395.211 450.152 402.972 455.439 407.268 458.704C419.882 468.288 429.749 478.683 438.44 490.842C440.881 494.257 446.215 502.974 449.065 506.067" stroke="#B56370" stroke-width="3.00041" stroke-linecap="round"/>
<path d="M376.054 469.062C378.706 471.902 381.682 475.988 385.055 478.064" stroke="#B56370" stroke-width="3.00041" stroke-linecap="round"/>
<path d="M383.059 469.062C386.495 471.453 388.94 474.7 391.06 478.064" stroke="#B56370" stroke-width="3.00041" stroke-linecap="round"/>
<path d="M390.059 466.062C392.672 468.865 396.319 473.613 399.06 476.063" stroke="#B56370" stroke-width="3.00041" stroke-linecap="round"/>
<path d="M415.063 489.064C417.589 492.67 420.964 496.328 423.065 500.066" stroke="#B56370" stroke-width="3.00041" stroke-linecap="round"/>
<path d="M420.062 487.064C423.528 491.365 426.67 496.431 431.064 500.066" stroke="#B56370" stroke-width="3.00041" stroke-linecap="round"/>
<path d="M415.063 464.062C428.221 463.505 443.016 463.982 456.196 463.069C462.095 462.661 465.247 462.648 469.867 459.959C477.18 455.704 484.511 451.123 492.618 447.937C498.702 445.546 503.5 444.799 509.751 443.691C517.717 442.279 525.039 441.342 533.279 441.418C539.916 441.48 545.664 442.951 552.072 443.99C553.784 444.267 553.132 442.149 553.132 441.179C553.132 438.293 553.617 437.18 556.806 438.816C563.559 442.281 570.377 445.5 576.554 449.702C579.796 451.907 588.089 455.733 592.088 456.861" stroke="#B56370" stroke-width="3.00041" stroke-linecap="round"/>
<path d="M554.083 462.06C560.754 462.19 566.482 466.323 572.086 469.061" stroke="#B56370" stroke-width="3.00041" stroke-linecap="round"/>
<path d="M565.084 459.061C571.173 460.813 575.397 463.505 580.086 467.062" stroke="#B56370" stroke-width="3.00041" stroke-linecap="round"/>
<path d="M584.087 462.06C586.726 463.755 589.402 465.424 592.088 467.061" stroke="#B56370" stroke-width="3.00041" stroke-linecap="round"/>
<path d="M540.079 480.066C545.719 480.066 550.874 479.842 555.081 483.063" stroke="#B56370" stroke-width="3.00041" stroke-linecap="round"/>
<path d="M1244.21 725.095C1244.21 725.222 1240.78 718.92 1239.99 717.547C1238.95 715.723 1235.14 706.075 1235.17 706.094C1238.78 708.188 1241.05 712.705 1245.17 713.924" stroke="#B56370" stroke-width="3.00041" stroke-linecap="round"/>
<path d="M1257.18 716.095C1255.94 709.993 1253.82 704.395 1253.18 698.093" stroke="#B56370" stroke-width="3.00041" stroke-linecap="round"/>
<path d="M1281.18 713.095C1281.43 701.732 1283.15 692.347 1288.16 681.834C1291.69 674.432 1295.25 669.67 1303.69 664.936C1323.51 653.821 1343.32 643.134 1365.51 635.928C1374.4 633.04 1383.07 629.418 1392.18 627.05C1395.21 626.262 1397.92 626.042 1400.49 624.4C1404.47 621.862 1407.92 616.788 1411.29 613.569C1416.74 608.358 1429.04 590.74 1440.2 587.078" stroke="#B56370" stroke-width="3.00041" stroke-linecap="round"/>
<path d="M1312.19 684.091C1307.66 688.577 1304.19 695.173 1304.19 701.094" stroke="#B56370" stroke-width="3.00041" stroke-linecap="round"/>
<path d="M1326.19 685.092C1320.99 689.631 1314.04 695.792 1312.18 702.094" stroke="#B56370" stroke-width="3.00041" stroke-linecap="round"/>
<path d="M1338.19 686.092C1333.24 689.819 1325.39 694.649 1323.18 700.094" stroke="#B56370" stroke-width="3.00041" stroke-linecap="round"/>
<path d="M1344.19 691.092C1340.82 694.399 1337.52 697.761 1334.19 701.094" stroke="#B56370" stroke-width="3.00041" stroke-linecap="round"/>
<path d="M1361.19 552.072C1377.47 556.813 1384.42 577.46 1390.19 590.077" stroke="#B56370" stroke-width="3.00041" stroke-linecap="round"/>
<path d="M1370.19 543.072C1384.45 552.509 1397.62 571.317 1400.19 587.078" stroke="#B56370" stroke-width="3.00041" stroke-linecap="round"/>
<path d="M1405.67 583.078C1391.82 557.117 1397.71 525.252 1419.2 504.067" stroke="#B56370" stroke-width="3.00041" stroke-linecap="round"/>
<path d="M1031.15 619.083C1037.73 620.198 1037.24 629.419 1043.15 631.085" stroke="#B56370" stroke-width="3.00041" stroke-linecap="round"/>
<path d="M1042.15 623.083C1048.47 626.516 1051.1 631.768 1054.94 636.979" stroke="#B56370" stroke-width="3.00041" stroke-linecap="round"/>
<path d="M1058.15 653.087C1064.42 655.057 1069.93 657.849 1075.86 659.388C1082.49 661.107 1089.32 661.44 1096.16 662.088" stroke="#B56370" stroke-width="3.00041" stroke-linecap="round"/>
<path d="M1078.15 655.098C1092.52 655.098 1111.16 654.169 1114.16 670.089" stroke="#B56370" stroke-width="3.00041" stroke-linecap="round"/>
<path d="M1113.89 674.089C1111.31 686.382 1115.53 695.386 1126.16 703.093" stroke="#B56370" stroke-width="3.00041" stroke-linecap="round"/>
<path d="M1130.16 699.093C1133.35 703.904 1140.65 707.094 1147.16 707.094" stroke="#B56370" stroke-width="3.00041" stroke-linecap="round"/>
<path d="M1157.16 715.096C1165.55 716.621 1173.03 717.891 1179.17 723.097" stroke="#B56370" stroke-width="3.00041" stroke-linecap="round"/>
<path d="M1183.17 718.095C1190.51 724.168 1199.17 728.379 1204.17 736.098" stroke="#B56370" stroke-width="3.00041" stroke-linecap="round"/>
<path d="M836.119 618.083C840.457 633.929 850.977 639.219 868.123 640.086" stroke="#B56370" stroke-width="3.00041" stroke-linecap="round"/>
<path d="M858.12 632.084C862.854 633.709 867.962 636.085 873.122 636.085" stroke="#B56370" stroke-width="3.00041" stroke-linecap="round"/>
<path d="M898.127 635.89C898.769 635.67 916.381 628.754 917.037 631.905C917.782 635.481 913.816 641.413 912.881 645.086" stroke="#B56370" stroke-width="3.00041" stroke-linecap="round"/>
<path d="M1141.16 798.106C1155.25 796.745 1165.08 777.511 1179.75 772.468C1196.35 766.762 1216.55 772.468 1233.66 772.468C1268.26 772.468 1293.61 768.768 1319.21 747.711C1344.97 726.522 1356.5 723.091 1388.77 713.738C1401.02 710.186 1429.83 707.727 1440.2 713.738" stroke="#B56370" stroke-width="3.00041" stroke-linecap="round"/>
<path d="M1378.19 740.098C1364.71 746.23 1347.42 752.162 1338.19 763.101" stroke="#B56370" stroke-width="3.00041" stroke-linecap="round"/>
<path d="M1373.19 754.101C1364.25 754.68 1359.47 758.551 1354.19 764.102" stroke="#B56370" stroke-width="3.00041" stroke-linecap="round"/>
<path d="M1373.19 754.101C1388.42 756.285 1384.49 757.18 1373.19 764.102" stroke="#B56370" stroke-width="3.00041" stroke-linecap="round"/>
<path d="M1014.14 715.096C1002.82 720.817 991.69 726.385 981.14 733.098" stroke="#B56370" stroke-width="3.00041" stroke-linecap="round"/>
<path d="M1012.14 723.097C1005.69 727.003 999.398 730.999 993.139 735.098" stroke="#B56370" stroke-width="3.00041" stroke-linecap="round"/>
<path d="M1033.15 745.1C1043.35 749.43 1055.27 754.486 1066.15 759.102" stroke="#B56370" stroke-width="3.00041" stroke-linecap="round"/>
<path d="M1015.15 746.1C1023.14 751.512 1034.7 754.75 1044.15 758.102" stroke="#B56370" stroke-width="3.00041" stroke-linecap="round"/>
<path d="M1017.14 762.101C1008.62 762.664 993.561 764.823 986.139 777.103" stroke="#B56370" stroke-width="3.00041" stroke-linecap="round"/>
<path d="M1017.14 762.101C1012.81 773.804 1009.25 775.679 1021.89 776.92C1027.76 777.496 1030.96 781.575 1036.15 783.104" stroke="#B56370" stroke-width="3.00041" stroke-linecap="round"/>
<path d="M1012.14 787.105C1008.09 787.878 1006.29 792.148 1005.14 795.106" stroke="#B56370" stroke-width="3.00041" stroke-linecap="round"/>
<path d="M929.13 713.095C921.036 722.389 908.449 732.657 905.127 744.099" stroke="#B56370" stroke-width="3.00041" stroke-linecap="round"/>
<path d="M932.133 719.096C937.89 724.483 943.606 729.806 951.135 735.098" stroke="#B56370" stroke-width="3.00041" stroke-linecap="round"/>
<path d="M927.559 744.1C917.821 748.599 925.428 755.291 938.003 746.755C944.931 742.052 947.485 754.915 951.137 758.102" stroke="#B56370" stroke-width="3.00041" stroke-linecap="round"/>
<path d="M708.103 658.087C702.231 662.981 698.133 667.317 696.102 674.089" stroke="#B56370" stroke-width="3.00041" stroke-linecap="round"/>
<path d="M708.1 658.087C712.226 667.934 721.659 674.008 731.103 681.09" stroke="#B56370" stroke-width="3.00041" stroke-linecap="round"/>
<path d="M713.104 684.091C713.878 689.83 724.193 694.47 730.106 696.093" stroke="#B56370" stroke-width="3.00041" stroke-linecap="round"/>
</g>
<defs>
<clipPath id="clip0_200_3660">
<rect width="1440.2" height="803.11" fill="white"/>
</clipPath>
</defs>
</svg>
