<svg width="1441" height="804" viewBox="0 0 1441 804" fill="none" xmlns="http://www.w3.org/2000/svg">
<g clip-path="url(#clip0_200_3290)">
<path d="M1174.07 231.698L1263.48 244.642L1440.2 292.868V547.488V802.107H0.00719918V204.903C0.00475037 204.605 0.00477312 204.313 0.00719918 204.026V204.903C0.183228 226.304 13.1303 275.267 64.1927 307.064C128.909 347.364 87.3343 330.719 148.868 341.71C210.401 352.701 222.847 320.803 259.448 328.588C288.73 334.816 325.585 302.852 350.982 307.064C376.378 311.276 401.564 384 425.965 384H590.408C611.202 384 651.508 388.462 680.079 391.55C704.946 391.55 732.252 382.534 760.685 367.513C789.117 352.493 808.079 345.46 816.213 338.744C880.762 306.608 930.386 311.133 964.359 281.167C1020.44 231.698 1089.41 217.143 1174.07 231.698Z" fill="#FFC379"/>
<path d="M1021.14 289.875C1031.19 282.25 1052.11 266.406 1055.4 264.034L1083.27 289.875V330.541H1109.31V295.805L1141.28 275.895L1158.19 295.805C1167.63 296.229 1193.27 297.838 1220.31 300.888C1247.35 303.938 1259.29 318.257 1261.88 325.034C1270.26 349.604 1276.86 397.811 1236.3 394.083C1195.74 390.355 1152.4 395.636 1135.8 398.743C1095.91 405.097 1001.96 419.161 945.313 424.583C874.508 431.361 900.089 413.146 876.335 402.555C857.332 394.083 852.276 372.761 852.124 363.159V325.034L885.014 306.395L936.177 300.888C941.811 305.689 960.296 315.969 989.167 318.68C1018.04 321.391 1022.51 315.291 1021.14 311.902V289.875Z" fill="#FDEA98"/>
<path d="M982.038 314.109C978.331 325.668 973.125 336.633 967.389 347.435C964.288 353.274 961.351 353.78 968.933 352.414C979.11 350.58 990.557 349.602 1000.91 350.205C1004.58 350.418 1018.42 353.312 1021.65 350.733C1023.24 349.466 1020.78 343.782 1017.48 330.724C1015.57 323.143 1015.16 314.483 1013.65 314.109C1007.16 312.496 985.391 315.937 977.727 312.04" stroke="#F36648" stroke-width="3.00041" stroke-linecap="round"/>
<path d="M976.099 352.046C976.72 357.574 976.419 363.508 975.136 370.121C975.01 370.771 973.77 379.023 974.252 379.05C977.042 376.734 979.4 374.521 985.489 373.885C993.996 372.996 1002.71 373.312 1011.2 374.265C1016.27 374.835 1024.35 379.01 1023 371.986C1021.85 365.997 1019.42 358.12 1019.42 352.046" stroke="#F36648" stroke-width="3.00041" stroke-linecap="round"/>
<path d="M1055.75 258.032C1050.99 266.119 1042.28 274.172 1036.27 277.992C1032.05 280.668 1027.7 282.771 1022.94 284.475C1017.6 286.388 1017.99 286.078 1023.55 288.442C1030.06 291.206 1036.52 294.019 1042.62 297.537C1045.16 299.005 1045.98 296.945 1048.26 295.215C1053.83 290.978 1061.28 284.966 1066.22 280.045C1069.81 276.468 1061.93 271.51 1059.08 267.466M1059.08 260.278C1061.57 263.595 1082.07 284.538 1087.16 284.538" stroke="#F36648" stroke-width="3.00041" stroke-linecap="round"/>
<path d="M1020.15 290.037C1021.81 295.417 1025.05 302.591 1024.04 307.971C1023.41 311.334 1022.53 314.526 1021.81 317.846C1021.6 318.768 1025.67 320.234 1026.48 320.524C1029.4 321.577 1036.26 325.32 1039.15 329.042" stroke="#F36648" stroke-width="3.00041" stroke-linecap="round"/>
<path d="M1027.15 354.046C1035.37 345.398 1048.53 340.834 1060.74 346.125C1069.24 349.812 1059.37 340.055 1057.94 338.644C1056.13 336.857 1050.17 332.043 1047.21 332.043C1042.61 332.043 1038.67 334.684 1033.68 334.684" stroke="#F36648" stroke-width="3.00041" stroke-linecap="round"/>
<path d="M1043.15 333.043C1045.96 328.299 1056.47 325.81 1061.78 325.81C1063.51 325.81 1066.53 326.386 1068.06 325.615C1069.96 324.664 1069.02 323.175 1072.39 323.175C1075.12 323.175 1077.67 324.054 1080.32 324.054C1083.03 324.054 1080.88 314.688 1080.73 313.121C1080.3 308.669 1079.36 289.869 1085.16 288.036" stroke="#F36648" stroke-width="3.00041" stroke-linecap="round"/>
<path d="M1145.16 267.034C1144.66 271.284 1133.09 279.199 1129.34 281.451C1122.15 285.769 1118.16 288.51 1113.04 290.913C1109.51 292.572 1114.96 303.529 1113.9 313.689C1113.85 314.809 1112.39 327.067 1111.16 324.751" stroke="#F36648" stroke-width="3.00041" stroke-linecap="round"/>
<path d="M1144.16 272.943C1147.66 279.956 1154.8 301.039 1165.68 301.039C1166.76 301.039 1169.82 298.033 1172.67 296.669C1172.67 296.669 1177.53 293.864 1179.93 293.207C1182.27 292.568 1166.45 290.47 1165.68 290.306C1159.95 289.088 1150.37 273.489 1146.1 268.034" stroke="#F36648" stroke-width="3.00041" stroke-linecap="round"/>
<path d="M1161.66 300.751C1161.66 297.235 1161.16 307.554 1161.66 313.903C1162.75 327.962 1164.18 327.105 1165.13 334.113C1166.01 340.707 1151.38 334.113 1151.38 334.113C1139.07 329.578 1136.61 327.471 1126.26 327.471C1124.68 327.471 1117.87 327.471 1123.1 327.471" stroke="#F36648" stroke-width="3.00041" stroke-linecap="round"/>
<path d="M1165.17 336.044C1172.43 328.433 1180.14 319.615 1189.99 318.11C1191.02 317.767 1195.61 318.022 1194.09 316.258C1191.34 313.055 1189.66 310.137 1189.17 306.039C1188.68 301.984 1189.87 298.098 1192.61 294.815C1194.59 292.432 1193.98 296.224 1202 296.988C1207.57 297.518 1213.75 297.074 1219.17 295.156" stroke="#F36648" stroke-width="3.00041" stroke-linecap="round"/>
<path d="M1049.32 301.461C1049.49 303.161 1048.43 311.383 1050.15 311.029C1054.34 310.169 1055.85 309.221 1056.67 305.171C1057.69 300.214 1057.5 295.774 1052.02 299.313" stroke="#F36648" stroke-width="3.00041" stroke-linecap="round"/>
<path d="M1063.92 297.186C1063.92 299.221 1063.06 305.039 1065.33 305.039C1067.91 305.039 1069.33 304.586 1069.33 302.134C1069.33 299.672 1070.27 297.033 1070.14 294.575C1069.92 290.608 1064.77 292.082 1063.15 293.703" stroke="#F36648" stroke-width="3.00041" stroke-linecap="round"/>
<path d="M1045.15 299.039C1045.15 303.062 1044.91 310.963 1042.78 317.946C1040.64 324.929 1037.81 329.651 1038.18 328.979" stroke="#F36648" stroke-width="3.00041" stroke-linecap="round"/>
<path d="M926.24 284.036C926.24 288.57 925.937 293.209 926.344 297.724C926.746 302.193 929.393 301.387 933.22 301.387C936.871 301.387 941.58 300.148 944.992 300.519C946.906 300.728 945.763 305.415 945.513 306.496C944.992 308.745 952.026 309.724 953.135 310.04" stroke="#F36648" stroke-width="3.00041" stroke-linecap="round"/>
<path d="M923.134 285.037C916.068 286.006 900.146 286.006 900.146 286.006C897.25 286.006 892.589 282.915 891.46 289.2C890.401 295.1 889.726 300.184 884.371 303.56C881.401 305.432 906.418 308.362 923.134 302.887" stroke="#F36648" stroke-width="3.00041" stroke-linecap="round"/>
<path d="M891.128 307.04C894.394 310.966 893.927 321.167 892.257 325.914C891.364 328.453 896.016 325.914 911.733 325.914C927.45 325.914 934.328 328.784 933.544 323.391C933.096 320.304 931.433 305.353 938.673 309.311C941.685 310.957 939.477 316.171 939.186 318.748C938.681 323.225 948.882 318.748 951.137 317.032" stroke="#F36648" stroke-width="3.00041" stroke-linecap="round"/>
<path d="M865.924 305.699C865.924 313.191 856.166 321.945 849.699 326.272C845.165 329.305 842.406 331.275 840.17 333.915C839.648 334.531 843.455 338.459 844.136 338.974C846.98 341.123 845.591 342.098 849.699 339.412C857.672 334.199 862.125 329.371 868.654 322.434C870.674 320.287 872.207 317.429 874.474 315.526C875.29 314.841 883.787 331.763 883.908 332.145M885.821 336.21C887.057 338.837 890.126 339.159 892.811 338.098C898.735 335.759 891.855 326.562 888.213 322.434C883.43 317.013 880.704 310.759 879.603 305.04C879.176 302.823 873.122 304.97 870.515 305.04" stroke="#F36648" stroke-width="3.00041" stroke-linecap="round"/>
<path d="M847.125 341.207C848.849 347.083 848.849 351.603 848.849 356.575C848.849 362.829 848.969 365.883 848.849 369.701C848.835 370.148 856.952 369.214 859.196 369.214C866.942 369.214 874.646 368.952 882.332 369.896C890.342 370.879 889.739 367.032 888.155 360.452C886.195 352.308 886.283 343.404 886.283 335.043" stroke="#F36648" stroke-width="3.00041" stroke-linecap="round"/>
<path d="M893.324 341.511C891.048 342.045 891.129 353.043 891.129 354.947C891.129 360.787 891.577 362.237 898.293 360.134C905.051 358.018 906.233 360.138 906.233 352.771C906.233 349.846 905.236 332.778 910.843 338.046C915.063 342.01 917.361 345.665 915.454 351.039" stroke="#F36648" stroke-width="3.00041" stroke-linecap="round"/>
<path d="M915.131 350.586C917.359 349.022 925.293 343.048 929.041 345.727C932.774 348.394 924.677 354.912 931.133 353.95" stroke="#F36648" stroke-width="3.00041" stroke-linecap="round"/>
<path d="M970.873 383.05C962.859 395.478 943.377 390.923 930.417 395.689C919.157 399.83 902.346 404.872 896.656 414.514C893.687 419.543 893.687 426.301 909.41 428.104M917.987 428.104C943.35 425.851 975.62 431.196 978.972 442.971C982.308 454.685 935.323 459.951 920.258 462.061" stroke="#F36648" stroke-width="3.00041" stroke-linecap="round"/>
<path d="M979.14 422.056C986.511 422.682 1003.64 427.425 1007.22 434.308C1012.75 444.962 991.984 453.681 984.756 457.061" stroke="#F36648" stroke-width="3.00041" stroke-linecap="round"/>
<path d="M939.138 405.751C943.396 406.461 946.941 412.18 946.941 417.261C946.941 419.829 951.102 415.933 950.355 408.969C949.867 404.423 957.089 407.726 958.305 408.969C959.38 410.066 960.171 401.108 961.141 399.053" stroke="#F36648" stroke-width="3.00041" stroke-linecap="round"/>
<path d="M967.142 392.052C970.012 395.122 969.182 400.692 972.193 395.066C974.06 391.578 975.636 398.327 977.143 399.053" stroke="#F36648" stroke-width="3.00041" stroke-linecap="round"/>
<path d="M985.142 398.052C989.783 394.755 997.79 391.605 1004.14 389.051" stroke="#F36648" stroke-width="3.00041" stroke-linecap="round"/>
<path d="M1008.15 388.05C1010.1 386.951 1013.47 385.901 1016.15 385.05" stroke="#F36648" stroke-width="3.00041" stroke-linecap="round"/>
<path d="M1021.15 383.05C1022.12 382.684 1023.81 382.334 1025.15 382.05" stroke="#F36648" stroke-width="3.00041" stroke-linecap="round"/>
<path d="M984.16 358.867C984.16 360.619 981.868 367.883 984.16 368.679C985.613 369.184 990.975 369.355 991.099 367.971C991.459 363.959 989.502 360.413 986.936 357.046" stroke="#F36648" stroke-width="3.00041" stroke-linecap="round"/>
<path d="M1004.51 359.802C1004.51 361.768 1002.89 368.989 1006.49 368.989C1010.1 368.989 1012.15 369.626 1012.15 366.693C1012.15 363.962 1011.96 358.358 1008.33 357.046" stroke="#F36648" stroke-width="3.00041" stroke-linecap="round"/>
<path d="M1031.08 276.876C1033.48 277.345 1040.54 276.895 1041.1 273.996C1041.1 270.416 1041.15 268.238 1041.15 265.441C1041.15 262.687 1033.32 262.812 1030.15 263.327" stroke="#F36648" stroke-width="3.00041" stroke-linecap="round"/>
<path d="M1166.2 280.75C1166.2 282.895 1163.87 290.48 1166.2 290.48C1165.55 290.032 1171.44 292.53 1171.44 289.553C1171.44 285.741 1173.38 280.408 1174.16 276.822C1174.47 275.37 1168.47 276.373 1166.2 276.373" stroke="#F36648" stroke-width="3.00041" stroke-linecap="round"/>
<path d="M1241.18 305.039C1237.85 314.229 1228.54 322.21 1220.37 327.614C1216.26 330.334 1211.87 332.449 1207.17 334.043" stroke="#F36648" stroke-width="3.00041" stroke-linecap="round"/>
<path d="M1193.17 321.042C1200.21 321.417 1202.91 331.852 1200.04 337.044" stroke="#F36648" stroke-width="3.00041" stroke-linecap="round"/>
<path d="M1207.17 338.044C1212.12 347.772 1204.45 357.545 1208.97 357.027C1216.37 356.177 1259.18 357.521 1259.18 353.078" stroke="#F36648" stroke-width="3.00041" stroke-linecap="round"/>
<path d="M1259.18 352.045C1254.18 344.536 1256.32 333.678 1259.18 326.042" stroke="#F36648" stroke-width="3.00041" stroke-linecap="round"/>
<path d="M1245.18 306.039C1249.83 316.351 1256.44 328.042 1270.18 328.042" stroke="#F36648" stroke-width="3.00041" stroke-linecap="round"/>
<path d="M1243.18 287.037C1247.4 294.191 1260.2 322.042 1270.18 322.042" stroke="#F36648" stroke-width="3.00041" stroke-linecap="round"/>
<path d="M1234.89 288.665C1231.89 290.247 1226.49 292.289 1224.18 293.038" stroke="#F36648" stroke-width="3.00041" stroke-linecap="round"/>
<path d="M1177.17 340.084C1177.74 336.797 1180.38 333.128 1184.93 334.249C1190.17 336.231 1190.17 345.891 1190.17 348.045" stroke="#F36648" stroke-width="3.00041" stroke-linecap="round"/>
<path d="M1195.17 346.214C1197.17 342.727 1201.08 343.984 1201.17 346.214C1201.25 348.203 1198.92 352.326 1198.92 352.031" stroke="#F36648" stroke-width="3.00041" stroke-linecap="round"/>
<path d="M1203.17 351.045C1202.67 353.195 1201.08 355.226 1199.17 356.046" stroke="#F36648" stroke-width="3.00041" stroke-linecap="round"/>
<path d="M1207.18 307.277C1207.18 310.465 1206.93 331.155 1213.65 319.529C1215.54 316.249 1216.18 313.227 1216.18 309.383C1216.18 306.526 1216.04 300.028 1211 304.652" stroke="#F36648" stroke-width="3.00041" stroke-linecap="round"/>
<path d="M1240.18 356.43C1240.18 360.095 1240.18 346.387 1240.18 342.722C1240.18 338.162 1244.06 336.745 1246.39 339.32C1248.44 341.578 1248.72 352.614 1247.27 355.514" stroke="#F36648" stroke-width="3.00041" stroke-linecap="round"/>
<path d="M968.141 317.042C962.012 323.032 940.323 332.201 935.137 334.044" stroke="#F36648" stroke-width="3.00041" stroke-linecap="round"/>
<path d="M935.286 333.536C935.286 334.027 934.791 338.982 935.603 339.028C937.091 339.113 938.606 338.832 940.038 338.465C947.562 336.539 953.792 332.259 959.887 327.729C963.204 325.263 969.779 321.697 972.142 318.041" stroke="#F36648" stroke-width="3.00041" stroke-linecap="round"/>
<path d="M969.142 316.041C971.596 317.801 977.149 318.021 980.144 319.042" stroke="#F36648" stroke-width="3.00041" stroke-linecap="round"/>
<path d="M968.139 322.042C969.629 322.523 977.449 328.179 978.141 326.837" stroke="#F36648" stroke-width="3.00041" stroke-linecap="round"/>
<path d="M941.133 338.044C941.372 341.783 942.496 345.706 942.544 349.474C942.557 350.57 943.134 354.968 943.134 353.872" stroke="#F36648" stroke-width="3.00041" stroke-linecap="round"/>
<path d="M942.136 354.969C943.769 353.577 951.04 351.872 952.168 354.182C952.638 355.146 952.627 356.389 952.518 357.427M955.305 359.296C959.743 359.941 964.812 361.36 969.14 362.047" stroke="#F36648" stroke-width="3.00041" stroke-linecap="round"/>
<path d="M911.129 360.566C916.564 359.455 921.558 360.313 926.938 361.413C935.651 363.196 944.493 364.883 952.842 367.925C953.321 368.099 964.126 372.31 961.812 373.049" stroke="#F36648" stroke-width="3.00041" stroke-linecap="round"/>
<path d="M963.136 372.048C962.895 374.324 955.918 376.415 954.591 376.911C940.053 382.351 926.037 381.758 911.129 378.959" stroke="#F36648" stroke-width="3.00041" stroke-linecap="round"/>
<path d="M848.123 374.402C858.522 373.208 867.72 375.137 877.325 378.765C882.339 380.659 888.464 385.05 894.129 385.05" stroke="#F36648" stroke-width="3.00041" stroke-linecap="round"/>
<path d="M875.128 395.051C878.072 398.104 880.252 399.984 884.13 402.052" stroke="#F36648" stroke-width="3.00041" stroke-linecap="round"/>
<path d="M885.126 394.051C886.375 396.373 887.411 398.545 888.127 401.052" stroke="#F36648" stroke-width="3.00041" stroke-linecap="round"/>
<path d="M892.131 400.007C892.131 400.334 892.187 398.774 892.19 398.757C892.4 397.488 893.19 396.319 894.328 395.661C896.23 394.56 896.497 395.002 896.191 396.565C896.087 397.093 895.529 399.968 896.563 399.968C897.279 399.968 897.843 399.037 898.289 398.622C899.986 397.048 902.077 396.169 904.133 395.161" stroke="#F36648" stroke-width="3.00041" stroke-linecap="round"/>
<path d="M938.142 382.05C938.142 383.296 937.991 394.546 939.135 394.035" stroke="#F36648" stroke-width="3.00041" stroke-linecap="round"/>
<path d="M934.14 383.05C934.14 384.296 933.99 395.546 935.134 395.035" stroke="#F36648" stroke-width="3.00041" stroke-linecap="round"/>
<path d="M947.135 380.049C947.135 383.738 947.135 387.379 947.135 391.051" stroke="#F36648" stroke-width="3.00041" stroke-linecap="round"/>
<path d="M942.136 345.045C948.768 345.045 968.423 345.045 961.791 345.045" stroke="#F36648" stroke-width="3.00041" stroke-linecap="round"/>
<path d="M963.137 345.045C961.863 343.681 963.807 336.835 961.335 337.171C960.705 337.257 957.227 336.846 956.828 337.171C955.977 337.866 956.15 343.583 956.15 344.664" stroke="#F36648" stroke-width="3.00041" stroke-linecap="round"/>
<path d="M949.136 344.045C949.136 342.66 949.136 338.981 949.136 338.044" stroke="#F36648" stroke-width="3.00041" stroke-linecap="round"/>
<path d="M910.339 311.43C910.339 312.567 909.506 317.094 911.182 317.04C912.786 316.988 914.132 316.976 914.132 315.555C914.132 314.455 914.132 313.355 914.132 312.255C914.132 310.641 911.692 311.1 910.339 311.1" stroke="#F36648" stroke-width="3.00041" stroke-linecap="round"/>
<path d="M901.339 311.43C901.339 312.567 900.505 317.094 902.181 317.04C903.786 316.988 905.132 316.976 905.132 315.555C905.132 314.455 905.132 313.355 905.132 312.255C905.132 310.641 902.692 311.1 901.339 311.1" stroke="#F36648" stroke-width="3.00041" stroke-linecap="round"/>
<path d="M926.131 298.039C928.096 296.084 931.428 294.437 934.144 294.107C936.775 293.787 935.097 294.605 935.018 296.176C934.816 300.201 941.021 294.718 942.134 298.039" stroke="#F36648" stroke-width="3.00041" stroke-linecap="round"/>
<path d="M876.74 302.039C875.921 300.702 869.544 294.596 871.498 293.415C874.548 291.571 879.761 296.986 881.129 299.054" stroke="#F36648" stroke-width="3.00041" stroke-linecap="round"/>
<path d="M881.125 300.038C883.218 297.41 886.371 294.079 890.127 295.296" stroke="#F36648" stroke-width="3.00041" stroke-linecap="round"/>
<path d="M892.131 326.042C895.14 328.546 898.938 330.67 902.186 333.006C903.794 334.162 905.122 332.088 906.772 331.209C909.544 329.734 913.222 331.181 915.845 329.968C917.984 328.979 922.952 339.173 923.136 341.044" stroke="#F36648" stroke-width="3.00041" stroke-linecap="round"/>
<path d="M924.136 341.676C926.122 341.49 927.87 339.475 929.994 340.2C931.774 340.807 933.595 342.38 935.06 343.459C937.557 345.298 940.062 347.771 942.139 350.045" stroke="#F36648" stroke-width="3.00041" stroke-linecap="round"/>
<path d="M1113.16 297.038C1118.58 295.735 1130.18 289.341 1135.37 285.306M1141.54 280.328C1142.63 279.539 1144.72 278.3 1145.17 277.036" stroke="#F36648" stroke-width="3.00041" stroke-linecap="round"/>
<path d="M1111.16 325.088C1109.27 323.907 1105.69 323.395 1105.04 323.365C1102.43 323.242 1100.07 323.256 1097.58 323.907C1097.15 324.019 1096.37 324.68 1095.92 324.589C1095.42 324.486 1092.45 319.83 1092.32 319.488M1089.5 316.041C1087.15 321.211 1085.67 323.581 1084.15 326.043" stroke="#F36648" stroke-width="3.00041" stroke-linecap="round"/>
<path d="M841.124 373.048C841.486 383.477 853.16 393.257 863.127 399.052" stroke="#F36648" stroke-width="3.00041" stroke-linecap="round"/>
<path d="M839.122 366.048C834.264 377.169 822.244 382.136 811.491 386.712C810.484 387.14 814.612 393.87 814.612 393.87C818.41 400.155 807.016 401.052 805.117 401.052" stroke="#F36648" stroke-width="3.00041" stroke-linecap="round"/>
<path d="M840.121 411.607C845.66 408.978 852.122 416.426 852.122 419.055" stroke="#F36648" stroke-width="3.00041" stroke-linecap="round"/>
<path d="M838.119 415.054C836.832 418.315 835.776 421.578 836.224 425.055" stroke="#F36648" stroke-width="3.00041" stroke-linecap="round"/>
<path d="M850.124 412.868C855.05 407.276 865.019 407.967 869.126 414.054" stroke="#F36648" stroke-width="3.00041" stroke-linecap="round"/>
<path d="M872.125 413.054C873.641 411.049 875.114 410.305 877.126 409.053" stroke="#F36648" stroke-width="3.00041" stroke-linecap="round"/>
<path d="M874.126 416.055C875.779 414.956 877.235 413.781 879.127 413.054" stroke="#F36648" stroke-width="3.00041" stroke-linecap="round"/>
<path d="M970.012 361.554C970.012 364.065 970.639 356.293 969.142 354.046" stroke="#F36648" stroke-width="3.00041" stroke-linecap="round"/>
<path d="M987.143 402.052C988.988 402.052 994.144 403.104 995.916 403.69C1003.11 406.068 1008.92 409.081 1016.17 413.607C1020.11 416.068 1023.68 419.033 1027.15 422.055" stroke="#F36648" stroke-width="3.00041" stroke-linecap="round"/>
<path d="M1002.14 395.051C1013.05 396.588 1022.52 401.754 1031.15 407.966C1034.94 410.689 1040.8 415.414 1042.15 417.054" stroke="#F36648" stroke-width="3.00041" stroke-linecap="round"/>
<path d="M1016.14 389.051C1030.86 391.884 1044.79 400.132 1056.15 409.054" stroke="#F36648" stroke-width="3.00041" stroke-linecap="round"/>
<path d="M1044.2 401.164C1044.58 398.936 1045.72 394.063 1044.79 389.01C1044.46 387.24 1042.71 382.066 1041.81 380.457C1040.85 378.73 1040.71 377.984 1042.96 376.573C1048.68 372.984 1055.02 368.909 1060.01 364.462C1063.09 361.718 1063.16 361.519 1067.16 363.978C1071.86 366.868 1076.8 369.374 1081.86 371.621C1084.29 372.697 1085.91 373.566 1090.62 374.154C1093.32 375.283 1104.29 366.051 1110.23 357.048M1112.87 352.352C1114.33 349.598 1113.47 349.401 1116.76 351.275C1122.84 354.735 1129.12 356.569 1135.58 358.757C1136.77 359.16 1135.93 368.71 1135.93 369.683C1135.93 373.794 1135.93 377.642 1137.36 381.525C1138.41 384.401 1142.87 390.339 1145.16 392.611M1124.11 388.872C1123.65 387.796 1121.24 384.508 1119.71 371.621M1118.85 365.151C1118.85 363.367 1118.76 357.808 1116.82 360.156C1114.09 363.459 1098.94 374.887 1095.4 377.306M1093.49 374.154C1095.96 378.38 1102.1 392.161 1102.1 398.013M1104.29 400.768C1105.28 401.034 1106.66 401.117 1107.69 401.279C1111.86 401.932 1115.82 402.562 1119.71 404.186C1124.11 406.028 1121.34 404.825 1121.72 401.615C1121.72 398.73 1122 392.104 1124.08 389.168" stroke="#F36648" stroke-width="3.00041" stroke-linecap="round"/>
<path d="M1123.16 405.052C1124.92 403.646 1127.96 403.126 1130.32 402.731C1132.52 402.363 1137.31 402.731 1139.55 402.731C1143.83 402.731 1141.68 395.729 1144.16 393.051" stroke="#F36648" stroke-width="3.00041" stroke-linecap="round"/>
<path d="M1092.16 375.049C1092.16 375.995 1091.57 377.268 1091.31 378.156C1090.2 381.986 1089.19 385.915 1089.16 389.905C1089.16 396.545 1090.72 401.789 1091.31 405.053" stroke="#F36648" stroke-width="3.00041" stroke-linecap="round"/>
<path d="M1043.15 381.049C1051.04 378.661 1060.72 377.288 1066.18 371.048M1069.11 372.993C1073.27 375.162 1082.2 379.57 1087.16 379.57" stroke="#F36648" stroke-width="3.00041" stroke-linecap="round"/>
<path d="M1107.16 400.853C1107.16 401.841 1107.43 398.889 1107.43 397.901M1107.22 391.052C1108.91 391.052 1110.59 391.052 1112.28 391.052C1113.55 391.052 1114.13 392.761 1114.15 393.985C1114.19 396.075 1114.11 397.796 1113.36 399.793C1113.14 400.39 1112.5 401.448 1113.09 400.596" stroke="#F36648" stroke-width="3.00041" stroke-linecap="round"/>
<path d="M1129.16 395.051L1128.69 398.014" stroke="#F36648" stroke-width="3.00041" stroke-linecap="round"/>
<path d="M1133.16 395.051L1132.69 398.014" stroke="#F36648" stroke-width="3.00041" stroke-linecap="round"/>
<path d="M1051.17 391.709C1051.06 390.292 1051.42 388.821 1051.42 387.4C1051.74 386.621 1055.06 385.434 1055.12 386.43C1055.2 387.811 1055.12 389.223 1055.12 390.605C1055.12 392.319 1054.18 392.006 1052.9 392.006C1052.54 392.006 1051.22 392.221 1051.17 391.709Z" stroke="#F36648" stroke-width="3.00041" stroke-linecap="round"/>
<path d="M1060.4 385.05C1060.4 386.547 1059.54 390.827 1061.02 391.461C1061.02 391.461 1063.32 392.787 1065.15 391.461" stroke="#F36648" stroke-width="3.00041" stroke-linecap="round"/>
<path d="M1070.16 407.053C1070.38 405.071 1070.72 403.286 1070.42 401.215C1070.04 398.535 1070.46 398.888 1073.22 398.761C1075.58 398.761 1078.79 396.931 1077.93 399.151C1077.17 401.084 1076.59 403.595 1076.59 405.668C1076.59 406.765 1079.43 406.319 1080.19 406.11C1081.92 405.629 1083.68 404.652 1085.18 405.859C1086.28 406.747 1086.44 407.053 1091.16 404.839" stroke="#F36648" stroke-width="3.00041" stroke-linecap="round"/>
<path d="M1018.14 324.042C1023.12 324.137 1026.84 328.829 1030.37 331.562C1031.16 332.178 1032.39 333.226 1032.96 334.03C1033.14 334.286 1034.15 335.104 1034.15 335.041" stroke="#F36648" stroke-width="3.00041" stroke-linecap="round"/>
<path d="M1115.16 333.637C1121.41 332.843 1126.13 332.845 1130.52 333.637C1131.85 333.766 1136.85 335.097 1138.06 335.742C1138.76 336.115 1135.73 338.473 1135.39 338.843C1134.3 340.052 1133.42 340.727 1132.47 342.044" stroke="#F36648" stroke-width="3.00041" stroke-linecap="round"/>
<path d="M1099 345.045C1097.29 345.883 1095.78 346.838 1094.42 348.147C1093.18 349.331 1096.72 349.374 1097.31 349.374C1104 349.693 1106.62 350.682 1109.16 351.046" stroke="#F36648" stroke-width="3.00041" stroke-linecap="round"/>
<path d="M1102.16 343.232C1113.05 342.301 1123.47 345.092 1125.16 346.045" stroke="#F36648" stroke-width="3.00041" stroke-linecap="round"/>
<path d="M1036.54 258.033C1031.91 253.347 1029.79 258.319 1024.9 257.152C1022.81 256.653 1017.69 254.249 1017.26 251.863C1016.62 248.362 1018.53 246.6 1027.38 245.252C1033.17 244.37 1044.95 239.259 1047.15 232.03" stroke="#F36648" stroke-width="3.00041" stroke-linecap="round"/>
<path d="M1046.02 231.975C1042.14 231.975 1029.23 232.8 1026.95 227.998C1021.53 216.625 1045.17 212.325 1052.15 219.637" stroke="#F36648" stroke-width="3.00041" stroke-linecap="round"/>
<path d="M1169.84 272.191C1167.42 270.582 1166.68 267.237 1167.47 264.633C1168.92 259.848 1172.7 259.143 1177.1 259.037C1184.89 258.85 1193.6 264.584 1194.13 271.159C1194.54 276.249 1191.87 278.516 1187.32 281.036" stroke="#F36648" stroke-width="3.00041" stroke-linecap="round"/>
<path d="M1184.38 283.036C1183.39 284.795 1186.16 285.566 1187.62 286.459C1192.33 288.751 1191.78 291.939 1189.29 293.037" stroke="#F36648" stroke-width="3.00041" stroke-linecap="round"/>
<path d="M1227.18 340.343C1227.18 336.465 1231.68 336.065 1232.07 338.83C1232.3 343.676 1232.07 343.271 1232.07 348.045" stroke="#F36648" stroke-width="3.00041" stroke-linecap="round"/>
<path d="M1216.17 349.045C1216.93 345.69 1216.96 342.242 1216.96 338.812C1216.96 335.725 1220.98 334.876 1221.16 338.043C1221.32 341.015 1220.29 343.913 1220.29 346.84" stroke="#F36648" stroke-width="3.00041" stroke-linecap="round"/>
<path d="M1075.32 366.798C1075.32 362.835 1075.32 358.75 1074.16 352.905M1074.16 349.307C1077.27 346.436 1082.5 342.113 1084.47 337.109C1084.73 336.467 1085.34 334.184 1085.71 335.389C1086.03 336.419 1086.94 337.089 1087.98 337.516C1089.15 337.996 1089.9 338.079 1091.19 338.079C1093.11 338.079 1092.96 338.066 1092.1 339.487C1090.6 341.963 1089.6 343.571 1089.12 346.526C1088.4 350.89 1089.99 353.844 1091.19 355.603M1091.19 362.348C1091.19 366.798 1093.16 376.232 1093.16 373.589" stroke="#F36648" stroke-width="3.00041" stroke-linecap="round"/>
<path d="M1078.15 346.045C1078.15 346.045 1081.15 352.141 1081.15 354.968M1081.15 359.21C1081.15 362.062 1081.15 367.196 1081.15 370.049" stroke="#F36648" stroke-width="3.00041" stroke-linecap="round"/>
<path d="M1059.15 330.974C1061.65 330.974 1063.92 331.424 1069.63 330.016C1071.33 329.31 1072.61 329.015 1074.16 328.042" stroke="#F36648" stroke-width="3.00041" stroke-linecap="round"/>
<path d="M1065.15 335.044C1068.33 335.044 1074.46 334.807 1076.15 332.043" stroke="#F36648" stroke-width="3.00041" stroke-linecap="round"/>
<path d="M1070.16 339.044C1073.08 339.044 1076.12 338.178 1078.16 336.043" stroke="#F36648" stroke-width="3.00041" stroke-linecap="round"/>
<path d="M1073.15 344.044C1077.53 344.044 1079.64 342.593 1083.16 340.043" stroke="#F36648" stroke-width="3.00041" stroke-linecap="round"/>
<path d="M1122.16 327.043C1122.28 326.045 1123.45 323.22 1123.63 322.218M1124.12 317.392C1124.12 316.763 1124.24 311.398 1124.95 310.975C1126.34 310.146 1127.42 309.903 1129.08 309.641C1130.52 309.416 1132.15 309.076 1133.61 309.076C1133.89 309.076 1134.93 308.927 1135.1 309.235C1135.62 310.223 1132.93 325.532 1132.93 326.604" stroke="#F36648" stroke-width="3.00041" stroke-linecap="round"/>
<path d="M1149.18 314.103C1149.12 313.127 1149.22 311.869 1150.13 311.153C1150.81 310.625 1153.8 309.655 1154.79 310.2C1157.31 311.153 1155.55 316.227 1155.8 317.572M1155.3 321.041C1154.27 320.865 1150.13 320.818 1149.18 320.546" stroke="#F36648" stroke-width="3.00041" stroke-linecap="round"/>
<path d="M1169.17 309.551C1169.17 307.6 1171.93 304.711 1174.03 306.72C1174.84 307.734 1174.89 309.833 1174.98 311.065C1175.09 312.444 1175.17 313.79 1175.17 315.176C1175.17 316.808 1172.41 317.703 1171.44 319.041" stroke="#F36648" stroke-width="3.00041" stroke-linecap="round"/>
<path d="M1182.17 312.04C1182.17 310.597 1181.52 305.438 1181.17 304.039" stroke="#F36648" stroke-width="3.00041" stroke-linecap="round"/>
<path d="M1137.16 377.739C1141.74 376.893 1172.96 371.214 1177.76 370.082M1207.49 365.605C1208.44 365.443 1214.22 364.547 1213.01 365.433C1209.54 367.977 1206.04 372.513 1204.5 376.388C1204.5 376.388 1201.16 384.044 1201.16 393.051M1183.96 368.731C1188.74 368.281 1202.59 366.48 1202.59 366.48" stroke="#F36648" stroke-width="3.00041" stroke-linecap="round"/>
<path d="M1139.16 384.536C1156.42 383.621 1161.52 392.608 1163.61 395.051M1166.01 391.394C1166.56 387.204 1170.8 383.621 1175.12 381.335C1179.14 379.207 1182.33 379.049 1186.62 379.049C1189.98 379.506 1191.69 379.875 1193.82 381.792C1197.17 384.824 1197.17 390.881 1197.17 392.765" stroke="#F36648" stroke-width="3.00041" stroke-linecap="round"/>
<path d="M1283.18 347.046C1279.91 355.182 1270.63 360.414 1268.01 361.861C1267.23 362.293 1266.08 363.065 1265.18 363.258M1266.82 366.483C1268.02 371.227 1268.21 379.727 1265.97 384.051" stroke="#F36648" stroke-width="3.00041" stroke-linecap="round"/>
<path d="M1255.18 356.046C1257.61 355.791 1268.06 347.368 1270.97 340.429M1275.33 340.043C1277.75 341.417 1281.97 342.533 1285.18 342.533" stroke="#F36648" stroke-width="3.00041" stroke-linecap="round"/>
<path d="M1254.18 356.046C1257.44 356.111 1262.27 360.614 1264.18 363.047" stroke="#F36648" stroke-width="3.00041" stroke-linecap="round"/>
<path d="M1254.9 356.046C1257.07 361.732 1257.93 368.177 1254.63 373.6C1254.41 373.962 1253.8 374.393 1254.54 374.512C1256.13 374.767 1257.82 375.447 1259.09 376.285C1262.61 378.601 1264.75 383.399 1265.18 387.05" stroke="#F36648" stroke-width="3.00041" stroke-linecap="round"/>
<path d="M1264.18 387.051C1270.91 379.697 1284.46 377.504 1292.18 377.05" stroke="#F36648" stroke-width="3.00041" stroke-linecap="round"/>
<path d="M1054.15 353.046C1052.66 354.291 1049.72 356.551 1048.15 357.723C1045.69 359.559 1040.98 361.337 1038.15 362.616M1040.06 362.616C1040.32 362.809 1049.19 369.048 1049.19 369.048" stroke="#F36648" stroke-width="3.00041" stroke-linecap="round"/>
<path d="M1039.15 363.047C1038.5 365.781 1038.16 372.126 1038.15 375.048" stroke="#F36648" stroke-width="3.00041" stroke-linecap="round"/>
<path d="M1054.15 353.046C1055.08 353.046 1057.24 354.61 1057.24 354.61C1063.11 358.998 1071.1 357.619 1073.15 358.047" stroke="#F36648" stroke-width="3.00041" stroke-linecap="round"/>
<path d="M863.938 369.048C863.938 364.146 863.905 359.408 863.16 354.565C862.956 353.235 863.637 352.706 865.3 352.383C868.344 351.791 871.302 351.108 874.416 351.046C877.247 350.988 875.666 367.109 875.855 369.048" stroke="#F36648" stroke-width="3.00041" stroke-linecap="round"/>
<path d="M866.123 341.208C866.123 335.221 867.838 333.826 869.652 333.068C874.145 332.655 874.863 337.444 875.085 339.07C875.613 342.919 870.627 341.911 869.652 341.959" stroke="#F36648" stroke-width="3.00041" stroke-linecap="round"/>
<path d="M1196.66 300.67C1196.52 301.864 1194.93 308.278 1198.34 306.827C1200.68 305.83 1202.69 304.625 1204.64 303.101C1206.21 301.872 1208.04 299.641 1209.17 298.038" stroke="#F36648" stroke-width="3.00041" stroke-linecap="round"/>
<path d="M1168.16 339.044C1165.95 342.875 1161.53 345.753 1157.67 348.083C1155.81 349.203 1153.41 350.637 1151.16 351.046" stroke="#F36648" stroke-width="3.00041" stroke-linecap="round"/>
<path d="M1151.16 351.045C1153.82 357.447 1154.49 364.171 1154.03 371.048" stroke="#F36648" stroke-width="3.00041" stroke-linecap="round"/>
<path d="M1152.17 352.046C1157.02 353.096 1161.54 355.319 1166.17 357.047" stroke="#F36648" stroke-width="3.00041" stroke-linecap="round"/>
<path d="M1167.17 358.046C1169.3 356.42 1171.19 354.706 1173.1 352.882C1174.32 351.714 1175.72 350.616 1176.17 349.045" stroke="#F36648" stroke-width="3.00041" stroke-linecap="round"/>
<path d="M1176.17 349.045C1177.15 349.96 1178.06 350.544 1179.51 351.283C1180.78 351.928 1183.75 352.855 1185.17 353.045" stroke="#F36648" stroke-width="3.00041" stroke-linecap="round"/>
<path d="M1184.54 353.046C1184.27 355.507 1183.62 364.827 1185.17 367.048" stroke="#F36648" stroke-width="3.00041" stroke-linecap="round"/>
<path d="M1167.17 358.046C1167.17 360.698 1167.17 376.265 1167.17 369.246" stroke="#F36648" stroke-width="3.00041" stroke-linecap="round"/>
<path d="M1173.17 360.047C1173.17 360.047 1173.17 362.821 1173.17 364.048" stroke="#F36648" stroke-width="3.00041" stroke-linecap="round"/>
<path d="M1169.17 333.042C1170.95 334.603 1172.74 335.846 1174.84 336.979C1175.59 337.387 1176.44 337.615 1177.17 338.043" stroke="#F36648" stroke-width="3.00041" stroke-linecap="round"/>
<path d="M1113.16 339.044C1113.16 339.044 1115.66 339.044 1118.16 339.044" stroke="#F36648" stroke-width="3.00041" stroke-linecap="round"/>
<path d="M1122.16 339.045C1123.2 339.045 1124.16 339.033 1125.16 339.256" stroke="#F36648" stroke-width="3.00041" stroke-linecap="round"/>
<path d="M1125.16 389.051C1125.87 389.051 1130.16 390.051 1130.16 390.051" stroke="#F36648" stroke-width="3.00041" stroke-linecap="round"/>
<path d="M1133.16 391.052L1135.16 391.5" stroke="#F36648" stroke-width="3.00041" stroke-linecap="round"/>
<path d="M1274.18 367.048C1274.18 367.962 1274.18 368.741 1274.18 369.638C1274.18 370.107 1274.18 370.58 1274.18 371.048" stroke="#F36648" stroke-width="3.00041" stroke-linecap="round"/>
<path d="M1279.18 365.047C1279.18 365.961 1279.18 366.74 1279.18 367.638C1279.18 368.106 1279.18 368.579 1279.18 369.048" stroke="#F36648" stroke-width="3.00041" stroke-linecap="round"/>
<path d="M1083.16 387.05C1083.16 387.964 1083.16 388.743 1083.16 389.641C1083.16 390.109 1083.16 390.582 1083.16 391.051" stroke="#F36648" stroke-width="3.00041" stroke-linecap="round"/>
</g>
<defs>
<clipPath id="clip0_200_3290">
<rect width="1440.2" height="803.11" fill="white"/>
</clipPath>
</defs>
</svg>
