<svg width="86" height="45" viewBox="0 0 86 45" fill="none" xmlns="http://www.w3.org/2000/svg">
<g clip-path="url(#clip0_103_2252)">
<path d="M63.4999 0H22.9999C10.5735 0 0.499878 10.0736 0.499878 22.5C0.499878 34.9264 10.5735 45 22.9999 45H63.4999C75.9263 45 85.9999 34.9264 85.9999 22.5C85.9999 10.0736 75.9263 0 63.4999 0Z" fill="#FDEA98"/>
<path d="M23.375 42C33.9374 42 42.5 33.4374 42.5 22.875C42.5 12.3126 33.9374 3.75 23.375 3.75C12.8126 3.75 4.25 12.3126 4.25 22.875C4.25 33.4374 12.8126 42 23.375 42Z" fill="#FFC379"/>
<path d="M23.375 26.2501C24.3125 26.2501 25.1094 25.922 25.7656 25.2657C26.4219 24.6095 26.75 23.8126 26.75 22.8751C26.75 21.9376 26.4219 21.1407 25.7656 20.4845C25.1094 19.8282 24.3125 19.5001 23.375 19.5001C22.4375 19.5001 21.6406 19.8282 20.9844 20.4845C20.3281 21.1407 20 21.9376 20 22.8751C20 23.8126 20.3281 24.6095 20.9844 25.2657C21.6406 25.922 22.4375 26.2501 23.375 26.2501ZM23.375 28.5001C21.8188 28.5001 20.4922 27.9517 19.3954 26.8548C18.2984 25.758 17.75 24.4314 17.75 22.8751C17.75 21.3189 18.2984 19.9923 19.3954 18.8955C20.4922 17.7985 21.8188 17.2501 23.375 17.2501C24.9313 17.2501 26.2579 17.7985 27.3547 18.8955C28.4516 19.9923 29 21.3189 29 22.8751C29 24.4314 28.4516 25.758 27.3547 26.8548C26.2579 27.9517 24.9313 28.5001 23.375 28.5001ZM15.5 24.0001H11V21.7501H15.5V24.0001ZM35.75 24.0001H31.25V21.7501H35.75V24.0001ZM22.25 15.0001V10.5001H24.5V15.0001H22.25ZM22.25 35.2501V30.7501H24.5V35.2501H22.25ZM17.075 18.0939L14.2344 15.3657L15.8375 13.7064L18.5375 16.5189L17.075 18.0939ZM30.9125 32.0439L28.1844 29.2032L29.675 27.6564L32.5156 30.3845L30.9125 32.0439ZM28.1563 16.5751L30.8844 13.7345L32.5438 15.3376L29.7313 18.0376L28.1563 16.5751ZM14.2062 30.4126L17.0469 27.6845L18.5938 29.1751L15.8656 32.0157L14.2062 30.4126Z" fill="#FDEA98"/>
<path d="M23.3749 28.5C26.4815 28.5 28.9999 25.9816 28.9999 22.875C28.9999 19.7684 26.4815 17.25 23.3749 17.25C20.2683 17.25 17.7499 19.7684 17.7499 22.875C17.7499 25.9816 20.2683 28.5 23.3749 28.5Z" fill="#FDEA98"/>
</g>
<defs>
<clipPath id="clip0_103_2252">
<rect width="85.5" height="45" fill="white" transform="translate(0.499878)"/>
</clipPath>
</defs>
</svg>
