<svg width="201" height="37" viewBox="0 0 201 37" fill="none" xmlns="http://www.w3.org/2000/svg">
<path d="M0.575147 29.0042V1.00033H15.0171V4.20077H3.93561V13.522H13.7769V16.6425H3.93561V29.0042H0.575147ZM28.6937 29.4842C22.2128 29.4842 17.2921 24.8036 17.2921 18.4427C17.2921 12.0018 22.2128 7.32119 28.6937 7.32119C35.2546 7.32119 40.0952 12.0018 40.0952 18.4427C40.0952 24.8036 35.2546 29.4842 28.6937 29.4842ZM28.6537 26.5638C33.4543 26.5638 36.9348 23.1233 36.9348 18.4427C36.9348 13.6821 33.4543 10.2416 28.6537 10.2416C23.933 10.2416 20.4525 13.6821 20.4525 18.4427C20.4525 23.1233 23.933 26.5638 28.6537 26.5638ZM55.2207 29.4842C48.7398 29.4842 43.8192 24.8036 43.8192 18.4427C43.8192 12.0018 48.7398 7.32119 55.2207 7.32119C61.7816 7.32119 66.6223 12.0018 66.6223 18.4427C66.6223 24.8036 61.7816 29.4842 55.2207 29.4842ZM55.1807 26.5638C59.9814 26.5638 63.4619 23.1233 63.4619 18.4427C63.4619 13.6821 59.9814 10.2416 55.1807 10.2416C50.4601 10.2416 46.9796 13.6821 46.9796 18.4427C46.9796 23.1233 50.4601 26.5638 55.1807 26.5638ZM81.2277 29.4842C74.9869 29.4842 70.3462 24.8036 70.3462 18.4027C70.3462 12.0018 74.9869 7.32119 81.2277 7.32119C84.7082 7.32119 87.6686 8.80139 89.6289 11.2417V0.000191784H92.8293V29.0042H89.7489L89.7089 25.4437C87.7486 27.964 84.7082 29.4842 81.2277 29.4842ZM81.6278 26.6038C86.3484 26.6038 89.7889 23.0833 89.7889 18.4027C89.7889 13.6821 86.3484 10.2416 81.6278 10.2416C76.8671 10.2416 73.5067 13.6421 73.5067 18.4027C73.5067 23.2034 76.8671 26.6038 81.6278 26.6038ZM108.145 29.4842C101.905 29.4842 97.304 24.8036 97.304 18.4427C97.304 12.0018 101.905 7.32119 108.145 7.32119C111.626 7.32119 114.666 8.8414 116.627 11.3617L116.667 7.80126H119.747V36.6052H116.547V25.5637C114.586 28.004 111.626 29.4842 108.145 29.4842ZM108.586 26.5638C113.266 26.5638 116.707 23.1233 116.707 18.4427C116.707 13.7221 113.266 10.2416 108.586 10.2416C103.905 10.2416 100.464 13.7221 100.464 18.4427C100.464 23.1233 103.905 26.5638 108.586 26.5638ZM132.627 29.4842C128.306 29.4842 125.306 26.3238 125.306 21.4031V7.80126H128.506V21.2031C128.506 24.5635 130.346 26.6038 133.467 26.6038C136.627 26.6038 139.147 23.9235 139.147 20.403V7.80126H142.348V29.0042H139.268L139.188 26.0437C137.667 28.244 135.227 29.4842 132.627 29.4842ZM157.848 29.4842C151.807 29.4842 146.607 25.3236 146.607 18.4027C146.607 12.0018 151.327 7.32119 157.808 7.32119C163.889 7.32119 168.73 11.3217 168.77 18.2827C168.77 18.8428 168.73 19.2428 168.69 19.6029H149.807C150.327 24.0835 153.888 26.6438 157.848 26.6438C160.969 26.6438 163.769 25.4837 165.609 22.7633L168.09 24.4435C165.529 28.124 161.929 29.4842 157.848 29.4842ZM149.847 16.8825H165.689C165.129 12.4019 161.889 10.1616 157.808 10.1616C153.528 10.1616 150.447 12.8819 149.847 16.8825ZM179.215 29.4842C175.254 29.4842 172.414 27.4439 171.294 23.6834L174.134 22.7233C174.974 25.4037 176.895 26.7638 179.255 26.7638C181.735 26.7638 183.375 25.3637 183.375 23.4034C183.375 21.0431 181.295 20.483 178.495 19.5629C174.694 18.2427 172.134 16.7225 172.134 13.162C172.134 9.72152 175.014 7.32119 179.055 7.32119C182.495 7.32119 185.216 9.16144 186.176 12.3219L183.455 13.282C182.775 11.2817 181.135 10.0416 179.015 10.0416C176.775 10.0416 175.174 11.2417 175.174 13.042C175.174 15.2023 176.775 15.9224 179.655 16.8425C183.535 18.0827 186.496 19.6429 186.496 23.4434C186.496 27.0039 183.455 29.4842 179.215 29.4842ZM197.994 29.3242C193.913 29.3242 192.033 27.1639 192.033 22.8033V10.5616H188.512V7.84126H190.153C192.113 7.84126 192.433 7.52122 192.433 5.36092V3.28064H195.113V7.80126H200.074V10.5616H195.233V22.6833C195.233 25.6037 196.113 26.3638 198.634 26.3638C199.114 26.3638 199.594 26.3238 200.074 26.2438V29.1642C199.394 29.2442 198.674 29.3242 197.994 29.3242Z" fill="black"/>
</svg>
