<svg width="63" height="62" viewBox="0 0 63 62" fill="none" xmlns="http://www.w3.org/2000/svg">
<rect width="62.4526" height="62" rx="11.2527" fill="black"/>
<path fill-rule="evenodd" clip-rule="evenodd" d="M51.1388 15.9618C51.1388 16.894 50.3831 17.6497 49.4509 17.6497H19.3376C18.4054 17.6497 17.6497 18.4054 17.6497 19.3376V21.8451C17.6497 22.7773 18.4054 23.533 19.3376 23.533H49.4509C50.3831 23.533 51.1388 24.2887 51.1388 25.2209V27.6059C51.1388 27.6059 51.1388 27.6059 51.1388 27.6059C51.1388 27.6059 51.1388 27.6059 51.1388 27.6059V48.9983C51.1388 49.9305 50.3831 50.6862 49.4509 50.6862H46.0384C45.1062 50.6862 44.3505 49.9305 44.3505 48.9983V45.1334C44.3505 44.2011 43.5948 43.4454 42.6626 43.4454H32.4617C31.5295 43.4454 30.7738 42.6897 30.7738 41.7575V37.6845V37.1097V32.0092C30.7738 31.077 30.0181 30.3213 29.0859 30.3213H19.3376C18.4054 30.3213 17.6497 31.077 17.6497 32.0092L17.6497 48.9984C17.6497 49.9306 16.894 50.6863 15.9618 50.6863H13.0019C12.0697 50.6863 11.314 49.9306 11.314 48.9984L11.314 17.6497V14.9345V13.0018C11.314 12.0696 12.0697 11.3139 13.0019 11.3139H49.4509C50.3831 11.3139 51.1388 12.0696 51.1388 13.0018V15.9618ZM44.3505 35.4218C44.3505 36.354 43.5948 37.1097 42.6626 37.1097H38.7975C37.8653 37.1097 37.1096 36.354 37.1096 35.4218V32.0092C37.1096 31.077 37.8653 30.3213 38.7975 30.3213H42.6626C43.5948 30.3213 44.3505 31.077 44.3505 32.0092V35.4218Z" fill="white"/>
</svg>
