<svg width="592" height="413" viewBox="0 0 592 413" fill="none" xmlns="http://www.w3.org/2000/svg">
<mask id="path-1-inside-1_128_1007" fill="white">
<path fill-rule="evenodd" clip-rule="evenodd" d="M156.02 108.001C156.02 102.478 151.543 98 146.019 98H17.0014C11.4778 98 7 102.478 7 108.001V238.019C7 243.543 11.4777 248.02 17.0014 248.02H146.019C151.543 248.02 156.02 243.543 156.02 238.019V212.016C156.02 206.492 160.498 202.015 166.022 202.015H290.04C295.563 202.015 300.041 206.492 300.041 212.016V246.02C300.041 251.544 295.563 256.022 290.04 256.022H199.065C193.541 256.022 189.063 260.5 189.063 266.023V402.042C189.063 407.565 193.541 412.043 199.065 412.043H581.117C586.64 412.043 591.118 407.565 591.118 402.042V266.023C591.118 260.5 586.64 256.022 581.117 256.022H366.05C360.527 256.022 356.049 251.544 356.049 246.02V211.013C356.049 205.49 351.571 201.012 346.047 201.012H337.047C331.523 201.012 327.045 196.534 327.045 191.011V155.008C327.045 149.485 322.568 145.007 317.044 145.007H166.022C160.498 145.007 156.02 140.529 156.02 135.006V108.001Z"/>
</mask>
<path fill-rule="evenodd" clip-rule="evenodd" d="M156.02 108.001C156.02 102.478 151.543 98 146.019 98H17.0014C11.4778 98 7 102.478 7 108.001V238.019C7 243.543 11.4777 248.02 17.0014 248.02H146.019C151.543 248.02 156.02 243.543 156.02 238.019V212.016C156.02 206.492 160.498 202.015 166.022 202.015H290.04C295.563 202.015 300.041 206.492 300.041 212.016V246.02C300.041 251.544 295.563 256.022 290.04 256.022H199.065C193.541 256.022 189.063 260.5 189.063 266.023V402.042C189.063 407.565 193.541 412.043 199.065 412.043H581.117C586.64 412.043 591.118 407.565 591.118 402.042V266.023C591.118 260.5 586.64 256.022 581.117 256.022H366.05C360.527 256.022 356.049 251.544 356.049 246.02V211.013C356.049 205.49 351.571 201.012 346.047 201.012H337.047C331.523 201.012 327.045 196.534 327.045 191.011V155.008C327.045 149.485 322.568 145.007 317.044 145.007H166.022C160.498 145.007 156.02 140.529 156.02 135.006V108.001Z" fill="white"/>
<path d="M17.0014 101H146.019V94.9996H17.0014V101ZM10.0004 238.019V108.001H3.99959V238.019H10.0004ZM146.019 245.02H17.0014V251.021H146.019V245.02ZM153.02 212.016V238.019H159.021V212.016H153.02ZM290.04 199.014H166.022V205.015H290.04V199.014ZM303.042 246.02V212.016H297.041V246.02H303.042ZM199.065 259.022H290.04V253.021H199.065V259.022ZM192.064 402.042V266.023H186.063V402.042H192.064ZM581.117 409.043H199.065V415.044H581.117V409.043ZM588.118 266.023V402.042H594.119V266.023H588.118ZM366.05 259.022H581.117V253.021H366.05V259.022ZM353.048 211.013V246.02H359.049V211.013H353.048ZM337.047 204.012H346.047V198.012H337.047V204.012ZM324.045 155.008V191.011H330.046V155.008H324.045ZM166.022 148.007H317.044V142.006H166.022V148.007ZM153.02 108.001V135.006H159.021V108.001H153.02ZM166.022 142.006C162.155 142.006 159.021 138.872 159.021 135.006H153.02C153.02 142.186 158.841 148.007 166.022 148.007V142.006ZM330.046 155.008C330.046 147.828 324.225 142.006 317.044 142.006V148.007C320.91 148.007 324.045 151.142 324.045 155.008H330.046ZM337.047 198.012C333.18 198.012 330.046 194.877 330.046 191.011H324.045C324.045 198.191 329.866 204.012 337.047 204.012V198.012ZM359.049 211.013C359.049 203.833 353.228 198.012 346.047 198.012V204.012C349.914 204.012 353.048 207.147 353.048 211.013H359.049ZM366.05 253.021C362.184 253.021 359.049 249.887 359.049 246.02H353.048C353.048 253.201 358.87 259.022 366.05 259.022V253.021ZM594.119 266.023C594.119 258.842 588.297 253.021 581.117 253.021V259.022C584.983 259.022 588.118 262.157 588.118 266.023H594.119ZM581.117 415.044C588.297 415.044 594.119 409.222 594.119 402.042H588.118C588.118 405.908 584.983 409.043 581.117 409.043V415.044ZM186.063 402.042C186.063 409.222 191.884 415.044 199.065 415.044V409.043C195.198 409.043 192.064 405.908 192.064 402.042H186.063ZM199.065 253.021C191.884 253.021 186.063 258.842 186.063 266.023H192.064C192.064 262.157 195.198 259.022 199.065 259.022V253.021ZM297.041 246.02C297.041 249.887 293.906 253.021 290.04 253.021V259.022C297.22 259.022 303.042 253.201 303.042 246.02H297.041ZM290.04 205.015C293.906 205.015 297.041 208.15 297.041 212.016H303.042C303.042 204.835 297.22 199.014 290.04 199.014V205.015ZM159.021 212.016C159.021 208.15 162.155 205.015 166.022 205.015V199.014C158.841 199.014 153.02 204.835 153.02 212.016H159.021ZM146.019 251.021C153.2 251.021 159.021 245.2 159.021 238.019H153.02C153.02 241.886 149.885 245.02 146.019 245.02V251.021ZM3.99959 238.019C3.99959 245.2 9.82066 251.021 17.0014 251.021V245.02C13.1348 245.02 10.0004 241.886 10.0004 238.019H3.99959ZM146.019 101C149.886 101 153.02 104.135 153.02 108.001H159.021C159.021 100.821 153.2 94.9996 146.019 94.9996V101ZM17.0014 94.9996C9.82069 94.9996 3.99959 100.821 3.99959 108.001H10.0004C10.0004 104.135 13.1348 101 17.0014 101V94.9996Z" fill="black" mask="url(#path-1-inside-1_128_1007)"/>
<mask id="path-3-inside-2_128_1007" fill="white">
<path fill-rule="evenodd" clip-rule="evenodd" d="M122.711 62.2122C138.123 66.5788 154.245 58.1174 158.722 43.3132C163.198 28.509 154.332 12.968 138.921 8.60146C123.509 4.2349 107.387 12.6963 102.91 27.5005C100.524 35.3939 101.93 43.4968 106.099 50.0036L99.1002 65.9423L115.89 59.3332C117.98 60.543 120.263 61.5186 122.711 62.2122Z"/>
</mask>
<path fill-rule="evenodd" clip-rule="evenodd" d="M122.711 62.2122C138.123 66.5788 154.245 58.1174 158.722 43.3132C163.198 28.509 154.332 12.968 138.921 8.60146C123.509 4.2349 107.387 12.6963 102.91 27.5005C100.524 35.3939 101.93 43.4968 106.099 50.0036L99.1002 65.9423L115.89 59.3332C117.98 60.543 120.263 61.5186 122.711 62.2122Z" fill="white"/>
<path d="M106.099 50.0036L108.861 51.1606L109.501 49.703L108.651 48.377L106.099 50.0036ZM99.1002 65.9423L96.3386 64.7854L93.4501 71.3635L100.178 68.7152L99.1002 65.9423ZM115.89 59.3332L117.439 56.7491L116.181 56.0214L114.812 56.5603L115.89 59.3332ZM155.835 42.4953C151.867 55.6191 137.493 63.2823 123.58 59.3402L121.843 65.0842C138.753 69.8752 156.624 60.6156 161.608 44.1311L155.835 42.4953ZM138.052 11.4735C151.966 15.4156 159.803 29.3714 155.835 42.4953L161.608 44.1311C166.592 27.6465 156.699 10.5204 139.789 5.72945L138.052 11.4735ZM105.797 28.3184C109.765 15.1945 124.139 7.53133 138.052 11.4735L139.789 5.72945C122.879 0.938478 105.008 10.1981 100.024 26.6826L105.797 28.3184ZM108.651 48.377C104.915 42.5462 103.677 35.3292 105.797 28.3184L100.024 26.6826C97.3702 35.4586 98.9448 44.4474 103.547 51.6302L108.651 48.377ZM101.862 67.0993L108.861 51.1606L103.337 48.8467L96.3386 64.7854L101.862 67.0993ZM114.812 56.5603L98.0228 63.1694L100.178 68.7152L116.967 62.1061L114.812 56.5603ZM123.58 59.3402C121.371 58.7146 119.317 57.8361 117.439 56.7491L114.341 61.9173C116.643 63.25 119.155 64.3226 121.843 65.0842L123.58 59.3402Z" fill="black" mask="url(#path-3-inside-2_128_1007)"/>
<circle cx="3.00041" cy="3.00041" r="3.00041" transform="matrix(1 -5.31258e-05 -5.3352e-05 1 116.02 28.697)" fill="black"/>
<circle cx="3.00041" cy="3.00041" r="3.00041" transform="matrix(1 -5.31255e-05 -5.33522e-05 1 139.024 28.6969)" fill="black"/>
<path d="M138.95 37.6978C137.825 45.6984 123.209 45.6992 122.085 37.6987C122.008 37.1517 122.464 36.6981 123.016 36.6981L138.018 36.6973C138.571 36.6973 139.027 37.1508 138.95 37.6978Z" stroke="black" stroke-width="2.00027"/>
<path d="M2.05767 244.604C1.37617 237.272 6.82747 222.841 10.9159 215.975C16.0945 224.633 38.8391 226.603 49.2873 227.068C40.5653 230.141 38.5125 240.208 40.8974 241.113C50.0963 244.604 47.7114 252.366 44.6453 253.333C40.2162 254.729 35.9915 254.729 25.9068 254.729H25.9067C13.3008 254.729 2.86789 253.321 2.05767 244.604Z" fill="#FB9450" stroke="black" stroke-width="3.00041"/>
<path d="M90.9808 247.397C86.8924 245.721 81.5547 229.94 79.397 222.259C97.6585 226.449 109.492 222.375 113.126 219.815C114.489 226.519 118.01 231.686 119.6 233.431C129.206 235.893 131.23 242.871 131.031 247.203C130.988 248.139 130.183 248.807 129.246 248.823C117.172 249.027 94.8896 248.999 90.9808 247.397Z" fill="#FB9450" stroke="black" stroke-width="3.00041"/>
<path d="M30.8077 226.511C27.8001 226.748 25.1111 232.864 24.1327 235.672C23.2033 238.338 25.3723 239.879 28.09 238.208C31.6656 236.463 35.9909 236.552 39.8915 236.552" stroke="#030100" stroke-width="3.00041" stroke-linecap="round"/>
<path d="M38.732 239.324C35.8723 240.262 32.6634 240.222 30.0581 241.921C28.2695 243.087 29.7204 244.335 31.969 245.265C33.577 245.929 34.5178 245.86 36.4132 244.781C37.7843 244 39.0687 242.071 40.5912 241.55" stroke="#030100" stroke-width="3.00041" stroke-linecap="round"/>
<path d="M100.952 225.067C100.952 227.181 100.319 231.982 102.498 233.296C104.513 234.511 106.808 232.783 108.681 231.998C110.929 231.056 113.135 230.719 115.444 230.194C117.648 229.692 114.118 231.402 113.404 232.108C110.738 234.746 109.111 236.109 112.18 238.73C114.782 240.952 117.188 235.755 118.729 234.176" stroke="#030100" stroke-width="3.00041" stroke-linecap="round"/>
<path d="M12.9601 217.371C-0.667905 204.243 12.0516 188.392 20.1148 182.108C38.7398 168.491 81.1683 146.705 101.883 168.491C122.598 190.278 128.084 205.151 124.028 210.388C106.993 232.384 80.5131 223.423 68.2951 217.371C64.5894 222.891 60.4248 225.446 58.2733 226.1C48.8472 228.66 26.5881 230.499 12.9601 217.371Z" fill="#895A4C"/>
<path d="M72.5827 208.643C71.363 212.142 69.8705 215.024 68.2951 217.371M68.2951 217.371C64.5894 222.891 60.4248 225.446 58.2733 226.1C48.8472 228.66 26.5881 230.499 12.9601 217.371C-0.667905 204.243 12.0516 188.392 20.1148 182.108C38.7398 168.491 81.1683 146.705 101.883 168.491C122.598 190.278 128.084 205.151 124.028 210.388C106.993 232.384 80.5131 223.423 68.2951 217.371Z" stroke="black" stroke-width="3.00041"/>
<path d="M190.465 117.168C173.294 146.496 190.352 171.285 201.027 180.013C175.951 198.168 156.509 185.017 149.922 176.173C175.815 177.01 175.701 163.953 172.408 157.319L171.045 146.496C173.226 130.575 154.01 133.112 144.13 136.37C154.487 109.277 179.336 112.28 190.465 117.168Z" fill="#D9D9D9" stroke="black" stroke-width="3.00041"/>
<path d="M8.70523 173.273L188.08 145.099L192.267 146.472C194.316 147.144 195.008 149.693 193.581 151.309L190.125 155.224L10.197 183.38C8.535 183.64 6.98396 182.483 6.75956 180.816L6.19719 176.637C5.97958 175.021 7.09363 173.526 8.70523 173.273Z" fill="#B8A1A9" stroke="black" stroke-width="3.00041"/>
<path d="M38.8531 84.6975C38.8531 83.3009 42.033 81.5552 43.6229 80.8569C51.1183 79.8095 78.7151 86.4432 80.4186 91.3312C80.8518 92.5742 80.8443 93.4334 80.4186 94.0638C90.5033 95.1327 95.2958 112.007 96.4315 120.31C105.699 127.572 109.151 137.301 109.719 141.258C96.3634 140.979 90.2989 148.357 88.9361 152.082C87.0282 162.975 69.0619 163.603 60.3173 162.556C59.068 162.207 55.6837 160.81 52.1404 158.017C48.5972 155.224 46.5757 150.336 46.0078 148.241L42.2601 145.797C29.1772 142.725 19.5468 149.056 18.0704 153.478C9.34845 147.892 7.16796 132.265 7.16797 123.103C7.16799 96.5683 26.7015 88.3053 38.8531 87.1414V84.6975Z" fill="#C181B0"/>
<path d="M38.8531 87.1414C44.5315 90.6329 57.8471 98.6529 66.4499 97.6157C72.2418 96.9174 79.1702 95.9122 80.4186 94.0638M38.8531 87.1414C38.8531 86.2652 38.8531 85.3626 38.8531 84.6975C38.8531 83.3009 42.033 81.5552 43.6229 80.8569C51.1183 79.8095 78.7151 86.4432 80.4186 91.3312C80.8518 92.5742 80.8443 93.4334 80.4186 94.0638M38.8531 87.1414C38.8531 88.1051 38.8531 86.5928 38.8531 87.1414ZM38.8531 87.1414C26.7015 88.3053 7.16799 96.5683 7.16797 123.103C7.16796 132.265 9.34845 147.892 18.0704 153.478C19.5468 149.056 29.1772 142.725 42.2601 145.797M42.2601 145.797C39.421 140.56 33.0612 124.5 38.8531 118.215C35.219 120.775 35.1736 132.949 42.2601 145.797ZM42.2601 145.797L46.0078 148.241C46.5757 150.336 48.5972 155.224 52.1404 158.017C55.6837 160.81 59.068 162.207 60.3173 162.556C69.0619 163.603 87.0282 162.975 88.9361 152.082C90.2989 148.357 96.3634 140.979 109.719 141.258C109.151 137.301 105.699 127.572 96.4315 120.31C95.2958 112.007 90.5033 95.1327 80.4186 94.0638" stroke="black" stroke-width="3.00041"/>
<path d="M84.6177 114.554C87.4568 122.119 92.2272 139.619 84.6177 158.557" stroke="black" stroke-width="3.00041"/>
<path d="M86.5513 51.5291C91.73 59.9084 84.3936 65.9602 80.078 67.9387L49.7557 80.8569C47.9386 81.0896 44.1001 81.4155 43.2824 80.8569C42.4647 80.2982 39.5347 77.831 38.1718 76.6672C36.5819 75.1542 33.7427 69.3352 35.1055 58.1627C36.4683 46.9902 48.3929 44.4298 54.1848 44.5462C59.9085 39.5186 68.8349 45.9428 72.5826 49.7833C79.3966 49.0851 77.3524 53.6239 81.4408 54.6713C84.7115 55.5093 86.2106 52.9256 86.5513 51.5291Z" fill="#FB9450" stroke="black" stroke-width="3.00041"/>
<path d="M41.9198 73.1758C41.3746 68.1482 46.9167 68.2879 49.7559 68.9861C56.0248 74.0137 56.9106 69.9172 56.5699 67.2405C56.1156 65.9603 56.3655 62.7715 60.999 60.2576C65.6325 57.7438 70.8793 59.2102 72.9235 60.2576C76.6712 62.1779 78.7836 65.4948 80.4189 68.2879C82.4631 71.7793 80.4189 75.2707 82.1224 77.0164C83.8259 78.7621 83.8746 83.301 82.1224 84.6975C79.0561 87.1415 73.9456 88.8872 64.406 88.8872C55.1349 88.8872 49.7559 83.6501 49.7559 80.1587C47.371 79.9259 42.4649 78.2035 41.9198 73.1758Z" fill="#FBE57C" stroke="black" stroke-width="3.00041"/>
<ellipse cx="4.41318" cy="6.81976" rx="4.41318" ry="6.81976" transform="matrix(0.623669 -0.781689 0.766509 0.642234 62.876 72.9723)" fill="white"/>
<path d="M65.769 66.8915C68.9489 67.2406 75.5812 69.2656 76.6715 74.5726C78.0343 81.2063 70.1982 77.3657 72.2424 70.0337" stroke="black" stroke-width="3.00041"/>
<path d="M21.1368 167.444C10.7795 162.975 14.5499 156.039 17.7298 153.129C24.8163 138.605 39.5347 143.586 46.008 147.892L48.7336 153.828L59.2953 164.651C59.2953 166.164 58.9546 169.888 58.9546 174.078C58.9546 178.267 53.9577 180.479 51.4592 181.061L51.054 184.175C50.8887 185.445 49.9357 186.47 48.6811 186.727L45.4845 187.383C43.6113 187.766 41.7282 186.771 40.9905 185.007L40.6507 184.195C41.1751 187.193 38.7934 188.043 37.1498 188.043C24.0669 189.719 21.0233 175.009 21.1368 167.444Z" fill="#895A4C"/>
<path d="M52.1406 174.078L51.4592 181.061M51.4592 181.061L51.054 184.175C50.8887 185.445 49.9357 186.47 48.6811 186.727L45.4845 187.383C43.6113 187.766 41.7282 186.771 40.9905 185.007L39.194 180.711C42.7373 186.577 39.3076 188.043 37.1498 188.043C24.0669 189.719 21.0233 175.009 21.1368 167.444C10.7795 162.975 14.5499 156.039 17.7298 153.129C24.8163 138.605 39.5347 143.586 46.008 147.892L48.7336 153.828L59.2953 164.651C59.2953 166.164 58.9546 169.888 58.9546 174.078C58.9546 178.267 53.9577 180.479 51.4592 181.061Z" stroke="black" stroke-width="3.00041"/>
<path d="M116.874 144.052C115.239 141.817 112.786 142.655 109.379 141.957C105.404 141.142 96.0232 140.769 90.2994 148.59C87.744 152.082 86.8243 159.064 83.8261 160.461C80.8279 161.858 97.7425 158.445 105.806 156.699C105.164 155.913 105.683 154.731 106.696 154.67L106.903 154.658L107.708 154.709C108.647 154.768 109.379 155.548 109.379 156.489C109.379 157.616 108.673 158.621 107.613 159.005L103.587 160.461L100.769 161.48C99.0258 162.111 97.9441 163.856 98.1555 165.698L98.203 166.112C98.3628 167.504 99.4641 168.6 100.856 168.753L108.016 169.539L116.532 166.387C118.724 165.576 119.986 163.356 119.916 161.02C119.81 157.491 120.697 157.555 120.962 155.922C121.279 153.974 118.918 146.845 116.874 144.052Z" fill="#895A4C" stroke="black" stroke-width="3.00041"/>
<path d="M117.896 167.444C118.237 168.84 121.984 175.823 119.94 177.918C118.149 179.753 110.606 182.66 108.305 173.728L109.378 177.918C107.448 179.664 102.496 182.108 98.1352 177.918C96.6588 178.5 92.8202 179.315 89.2769 177.918L85.8699 181.41C83.8257 182.108 79.3285 182.387 77.6932 177.918C76.0578 173.449 82.4629 172.915 85.8699 173.207C85.7903 172.705 85.7811 172.408 85.8251 172.051C85.9852 170.753 87.0904 169.759 88.3848 169.57L90.203 169.303C90.7128 169.229 91.2331 169.287 91.7139 169.471L93.7061 170.237L107.675 169.19L117.896 167.444Z" fill="#895A4C"/>
<path d="M107.675 169.19C108.356 183.504 117.896 180.013 119.94 177.918C121.984 175.823 118.237 168.84 117.896 167.444L107.675 169.19ZM107.675 169.19L93.7061 170.237M107.675 169.19L108.305 173.728L109.378 177.918C107.448 179.664 102.496 182.108 98.1352 177.918M98.1352 177.918C93.7742 173.728 93.3654 171.052 93.7061 170.237M98.1352 177.918L93.7061 170.237M98.1352 177.918C96.6588 178.5 92.8202 179.315 89.2769 177.918M93.7061 170.237L91.7139 169.471C91.2331 169.287 90.7128 169.229 90.203 169.303L88.3848 169.57C87.0904 169.759 85.9852 170.753 85.8251 172.051C85.7811 172.408 85.7903 172.705 85.8699 173.207M89.2769 177.918L85.8699 181.41C83.8257 182.108 79.3285 182.387 77.6932 177.918C76.0578 173.449 82.4629 172.915 85.8699 173.207M89.2769 177.918C87.0775 177.051 86.1646 175.063 85.8699 173.207" stroke="black" stroke-width="3.00041"/>
<path d="M37.8731 86.1467C35.0422 84.8574 28.633 83.9187 25.3718 84.4757C19.3929 85.4968 14.2473 88.1063 8.52207 91.7168C6.87662 92.7545 4.64852 94.4488 3.0867 95.6158C1.33888 96.9218 4.65483 96.3662 5.46169 96.4298C14.2209 97.1202 23.6253 99.3902 31.2726 103.856C39.1565 108.461 47.2008 115.221 50.9919 123.768C51.8498 125.702 53.5913 128.638 53.5913 130.764C53.5913 136.365 54.1793 140.733 54.7228 146.86C54.9688 149.634 55.2663 154.101 56.0595 156.811C56.0595 156.811 56.8969 160.228 59.0711 160.785C62.8759 161.899 66.9609 161.315 70.4854 160.309C74.956 159.032 79.1741 158.385 83.6035 157.376C87.6597 156.452 87.9035 148.25 88.5661 145.294C90.205 137.983 89.0585 130.531 87.335 123.466C86.6079 120.485 86.0635 117.153 84.8901 114.297C83.6209 111.208 89.5092 108.984 91.1393 106.756C92.8782 104.379 92.6077 101.743 91.1393 97.9366C88.9215 92.1879 85.3879 89.7518 79.7255 87.8177" stroke="#030100" stroke-width="3.00041" stroke-linecap="round"/>
<path d="M2.7961 96.1727C-0.605168 96.7517 7.95102 110.214 8.52196 111.769" stroke="#030100" stroke-width="3.00041" stroke-linecap="round"/>
<path d="M54.1797 129.036C57.6777 122.962 61.2212 118.819 66.721 114.632C68.2028 113.504 68.8552 112.883 71.3195 111.32C75.0051 108.984 77.2202 111.429 78.6389 112.883C80.0237 114.302 84.0742 117.896 85.7049 119.01" stroke="#030100" stroke-width="3.00041" stroke-linecap="round"/>
<path d="M73.7466 109.541C72.5991 105.965 70.4854 102.107 70.4854 98.4008" stroke="#030100" stroke-width="3.00041" stroke-linecap="round"/>
<path d="M16.9448 154.306C17.1981 156.901 25.334 163.687 25.334 160.324C25.334 157.97 29.442 154.649 31.2375 153.478C32.7484 152.493 40.5909 149.022 48.2005 153.478" stroke="#030100" stroke-width="3.00041" stroke-linecap="round"/>
<path d="M25.5923 130.02C26.9791 130.02 28.1555 129.972 29.4563 130.416" stroke="#030100" stroke-width="3.00041" stroke-linecap="round"/>
<path d="M93.6081 124.476L93.2217 124.08" stroke="#030100" stroke-width="3.00041" stroke-linecap="round"/>
<path d="M21.7278 183.88C18.9223 189.63 18.4153 195.673 18.6361 202.009C18.7766 206.039 27.2955 207.643 29.8434 208.236C37.2365 209.958 41.9139 202.924 44.8293 196.949C48.402 189.626 58.1481 188.882 64.6029 185.244C67.5067 183.608 70.1652 181.408 72.8902 179.546C74.2205 178.637 76.0911 177.142 76.6045 175.564" stroke="#030100" stroke-width="3.00041" stroke-linecap="round"/>
<path d="M24.0467 183.065C22.9613 183.204 22.5312 190.947 22.5009 191.801C22.4413 193.481 22.9319 194.222 24.0468 195.365C25.9037 197.268 29.9978 197.345 32.5488 197.345C37.1413 197.345 37.9592 192.474 37.9592 188.632" stroke="#030100" stroke-width="3.00041" stroke-linecap="round"/>
<path d="M27.1377 191.801V191.405" stroke="#030100" stroke-width="3.00041" stroke-linecap="round"/>
<path d="M149.842 150.614C149.842 148.038 154.379 144.608 156.407 147.841C158.533 151.23 159.226 155.874 158.511 159.898C158.223 161.523 155.011 161.136 154.19 159.898C152.684 157.628 153.112 153.31 152.736 150.614" stroke="#030100" stroke-width="3.00041" stroke-linecap="round"/>
<path d="M158.147 150.218C157.265 147.506 161.316 147.442 162.398 149.426C163.498 151.443 163.943 152.948 163.943 155.278C163.943 158.777 163.984 159.722 160.465 159.722" stroke="#030100" stroke-width="3.00041" stroke-linecap="round"/>
<path d="M147.712 164.079C146.28 164.666 143.154 167.852 142.709 169.447C142.279 170.989 145.883 171.603 146.746 171.603C150.801 171.603 150.803 165.101 150.803 162.099" stroke="#030100" stroke-width="3.00041" stroke-linecap="round"/>
<path d="M151.963 163.287C151.963 165.355 151.876 170.415 154.754 170.415C156.198 170.415 158.238 169.069 159.22 167.951C161.218 165.676 155.294 162.495 153.895 162.495" stroke="#030100" stroke-width="3.00041" stroke-linecap="round"/>
<path d="M73.1264 112.199C72.9801 110.999 72.0133 113.922 71.9671 114.091C71.4653 115.919 71.3991 117.822 70.8936 119.635C70.4295 121.3 72.6598 121.795 73.8994 121.795C78.6387 121.795 73.8994 112.258 73.8994 111.011" stroke="#030100" stroke-width="3.00041" stroke-linecap="round"/>
<path d="M37.3296 87.2606C40.8819 87.2606 45.3461 90.9562 48.4038 93.0074C51.4616 95.0586 54.0086 97.8588 56.0688 100.573C57.7676 102.812 63.3055 113.206 64.5065 115.668" stroke="#030100" stroke-width="3.00041" stroke-linecap="round"/>
<path d="M83.4982 116.414C83.4982 110.515 80.5532 101.867 77.9609 96.554" stroke="#030100" stroke-width="3.00041" stroke-linecap="round"/>
</svg>
